<svg width="32" height="33" viewBox="0 0 32 33" fill="none" xmlns="http://www.w3.org/2000/svg">
<rect x="2" y="2.89404" width="28" height="28" rx="14" fill="currentColor"/>
<path d="M12.6186 10.5862C12.6186 11.5207 11.8085 12.2783 10.8093 12.2783C9.81004 12.2783 9 11.5207 9 10.5862C9 9.65164 9.81004 8.89404 10.8093 8.89404C11.8085 8.89404 12.6186 9.65164 12.6186 10.5862Z" fill="#F9FAFB"/>
<path d="M9.24742 13.5221H12.3402V22.894H9.24742V13.5221Z" fill="#F9FAFB"/>
<path d="M17.3196 13.5221H14.2268V22.894H17.3196C17.3196 22.894 17.3196 19.9436 17.3196 18.0989C17.3196 16.9917 17.6977 15.8796 19.2062 15.8796C20.911 15.8796 20.9008 17.3286 20.8928 18.4511C20.8824 19.9185 20.9072 21.4159 20.9072 22.894H24V17.9478C23.9738 14.7894 23.1508 13.3341 20.4433 13.3341C18.8354 13.3341 17.8387 14.0641 17.3196 14.7245V13.5221Z" fill="#F9FAFB"/>
</svg>
