<svg width="20" height="20" viewBox="0 0 20 20" fill="none" xmlns="http://www.w3.org/2000/svg">
<path d="M10 0.5C15.2469 0.5 19.5 4.75314 19.5 10C19.5 15.2469 15.2469 19.5 10 19.5C4.75314 19.5 0.5 15.2469 0.5 10C0.5 4.75314 4.75314 0.5 10 0.5ZM10 1.5C7.74566 1.5 5.58332 2.3952 3.98926 3.98926C2.3952 5.58332 1.5 7.74566 1.5 10C1.5 12.2543 2.3952 14.4167 3.98926 16.0107C5.58332 17.6048 7.74566 18.5 10 18.5C12.2543 18.5 14.4167 17.6048 16.0107 16.0107C17.6048 14.4167 18.5 12.2543 18.5 10C18.5 7.74566 17.6048 5.58332 16.0107 3.98926C14.4167 2.3952 12.2543 1.5 10 1.5Z" fill="#6C63FF" stroke="#6C63FF"/>
<path d="M10 4.5C10.1326 4.5 10.2597 4.55272 10.3535 4.64648C10.4473 4.74025 10.5 4.86739 10.5 5V9.5H15C15.1326 9.5 15.2597 9.55272 15.3535 9.64648C15.4473 9.74025 15.5 9.86739 15.5 10C15.5 10.1326 15.4473 10.2597 15.3535 10.3535C15.2597 10.4473 15.1326 10.5 15 10.5H10.5V15C10.5 15.1326 10.4473 15.2597 10.3535 15.3535C10.2597 15.4473 10.1326 15.5 10 15.5C9.86739 15.5 9.74025 15.4473 9.64648 15.3535C9.55272 15.2597 9.5 15.1326 9.5 15V10.5H5C4.86739 10.5 4.74025 10.4473 4.64648 10.3535C4.55272 10.2597 4.5 10.1326 4.5 10C4.5 9.86739 4.55272 9.74025 4.64648 9.64648C4.74025 9.55272 4.86739 9.5 5 9.5H9.5V5C9.5 4.86739 9.55272 4.74025 9.64648 4.64648C9.74025 4.55272 9.86739 4.5 10 4.5Z" fill="#6C63FF" stroke="#6C63FF"/>
</svg>
