<svg width="8" height="13" viewBox="0 0 8 13" fill="none" xmlns="http://www.w3.org/2000/svg">
<path fill-rule="evenodd" clip-rule="evenodd" d="M1.31684 11.939C1.10021 11.7223 0.978516 11.4284 0.978516 11.122C0.978516 10.8156 1.10021 10.5217 1.31684 10.305L5.12197 6.49992L1.31684 2.69479C1.10635 2.47685 0.989879 2.18497 0.992511 1.88199C0.995144 1.57902 1.11667 1.2892 1.33091 1.07496C1.54516 0.860713 1.83497 0.739188 2.13795 0.736555C2.44092 0.733922 2.73281 0.850393 2.95074 1.06088L7.57283 5.68296C7.78945 5.89966 7.91115 6.19351 7.91115 6.49992C7.91115 6.80632 7.78945 7.10018 7.57283 7.31687L2.95074 11.939C2.73405 12.1556 2.44019 12.2773 2.13379 12.2773C1.82739 12.2773 1.53353 12.1556 1.31684 11.939Z" fill="#1F2937"/>
</svg>
