<svg width="8" height="13" viewBox="0 0 8 13" fill="none" xmlns="http://www.w3.org/2000/svg">
<path fill-rule="evenodd" clip-rule="evenodd" d="M7.46248 1.06096C7.6791 1.27765 7.8008 1.57151 7.8008 1.87792C7.8008 2.18432 7.6791 2.47818 7.46248 2.69487L3.65734 6.5L7.46248 10.3051C7.67296 10.5231 7.78943 10.815 7.7868 11.1179C7.78417 11.4209 7.66264 11.7107 7.4484 11.925C7.23416 12.1392 6.94434 12.2607 6.64136 12.2634C6.33839 12.266 6.0465 12.1495 5.82857 11.939L1.20649 7.31695C0.989858 7.10026 0.868164 6.8064 0.868164 6.5C0.868164 6.1936 0.989858 5.89974 1.20649 5.68305L5.82857 1.06096C6.04526 0.844335 6.33912 0.722641 6.64552 0.722641C6.95193 0.722641 7.24578 0.844335 7.46248 1.06096Z" fill="#1F2937"/>
</svg>
