<svg width="16" height="20" viewBox="0 0 16 20" fill="none" xmlns="http://www.w3.org/2000/svg">
<path d="M10.5 15.8333C10.5 16.4964 10.2366 17.1323 9.76774 17.6011C9.2989 18.0699 8.66301 18.3333 7.99997 18.3333C7.33693 18.3333 6.70104 18.0699 6.2322 17.6011C5.76336 17.1323 5.49997 16.4964 5.49997 15.8333M8.6008 4.16917L7.37914 4.16667C4.59247 4.16 2.1733 6.42417 2.15414 9.16667V12.325C2.15414 12.9833 2.0708 13.6258 1.71164 14.1733L1.47247 14.5383C1.1083 15.0917 1.49997 15.8333 2.15414 15.8333H13.8458C14.5 15.8333 14.8908 15.0917 14.5275 14.5383L14.2883 14.1733C13.93 13.6258 13.8458 12.9825 13.8458 12.3242V9.1675C13.8125 6.42417 11.3875 4.17583 8.6008 4.16917Z" stroke="#1F2937" stroke-width="2" stroke-linecap="round" stroke-linejoin="round"/>
<path d="M8.00016 1.66667C8.44219 1.66667 8.86611 1.84226 9.17867 2.15482C9.49123 2.46738 9.66683 2.89131 9.66683 3.33333V4.16667H6.3335V3.33333C6.3335 2.89131 6.50909 2.46738 6.82165 2.15482C7.13421 1.84226 7.55814 1.66667 8.00016 1.66667Z" stroke="#1F2937" stroke-width="2" stroke-linecap="round" stroke-linejoin="round"/>
</svg>
