<svg width="20" height="21" viewBox="0 0 20 21" fill="none" xmlns="http://www.w3.org/2000/svg">
<path d="M14 1.31012C14.1326 1.31012 14.2597 1.36284 14.3535 1.4566C14.4473 1.55037 14.5 1.67751 14.5 1.81012V3.31012H17C17.663 3.31012 18.2987 3.5737 18.7676 4.04254C19.2364 4.51138 19.5 5.14708 19.5 5.81012V17.8101C19.5 18.4732 19.2364 19.1089 18.7676 19.5777C18.2987 20.0465 17.663 20.3101 17 20.3101H3C2.33696 20.3101 1.70126 20.0465 1.23242 19.5777C0.763581 19.1089 0.5 18.4732 0.5 17.8101V5.81012C0.5 5.14708 0.763581 4.51138 1.23242 4.04254C1.70126 3.5737 2.33696 3.31012 3 3.31012H5.5V1.81012C5.5 1.67751 5.55272 1.55037 5.64648 1.4566C5.71689 1.3862 5.80611 1.33906 5.90234 1.31989L6 1.31012C6.13261 1.31012 6.25975 1.36284 6.35352 1.4566C6.44728 1.55037 6.5 1.67751 6.5 1.81012V3.31012H13.5V1.81012C13.5 1.67751 13.5527 1.55037 13.6465 1.4566C13.7169 1.3862 13.8061 1.33906 13.9023 1.31989L14 1.31012ZM1.5 17.8101C1.5 18.2079 1.65815 18.5894 1.93945 18.8707C2.22076 19.152 2.60218 19.3101 3 19.3101H17C17.3978 19.3101 17.7792 19.152 18.0605 18.8707C18.3419 18.5894 18.5 18.2079 18.5 17.8101V10.3101H1.5V17.8101ZM3 4.31012C2.60217 4.31012 2.22076 4.46827 1.93945 4.74957C1.65815 5.03088 1.5 5.4123 1.5 5.81012V9.31012H18.5V5.81012C18.5 5.4123 18.3419 5.03088 18.0605 4.74957C17.7792 4.46827 17.3978 4.31012 17 4.31012H14.5V5.81012C14.5 5.94273 14.4473 6.06987 14.3535 6.16364C14.2597 6.2574 14.1326 6.31012 14 6.31012C13.8674 6.31012 13.7403 6.2574 13.6465 6.16364C13.5527 6.06987 13.5 5.94273 13.5 5.81012V4.31012H6.5V5.81012C6.5 5.94273 6.44728 6.06987 6.35352 6.16364C6.25975 6.2574 6.13261 6.31012 6 6.31012C5.86739 6.31012 5.74025 6.2574 5.64648 6.16364C5.55272 6.06987 5.5 5.94273 5.5 5.81012V4.31012H3Z" fill="black" stroke="#6C63FF"/>
</svg>
