<svg width="13" height="13" viewBox="0 0 13 13" fill="none" xmlns="http://www.w3.org/2000/svg">
<rect x="0.283203" y="0.179993" width="12" height="12" rx="6" fill="#00BFA6"/>
<path d="M3.08301 4.57997C3.08301 4.3678 3.16729 4.16431 3.31732 4.01428C3.46735 3.86425 3.67083 3.77997 3.88301 3.77997H6.28301C6.49518 3.77997 6.69866 3.86425 6.84869 4.01428C6.99872 4.16431 7.08301 4.3678 7.08301 4.57997V7.77997C7.08301 7.99214 6.99872 8.19562 6.84869 8.34565C6.69866 8.49568 6.49518 8.57997 6.28301 8.57997H3.88301C3.67083 8.57997 3.46735 8.49568 3.31732 8.34565C3.16729 8.19562 3.08301 7.99214 3.08301 7.77997V4.57997ZM8.10421 5.02237C8.03778 5.05556 7.9819 5.1066 7.94283 5.16976C7.90376 5.23292 7.88305 5.3057 7.88301 5.37997V6.97997C7.88305 7.05423 7.90376 7.12702 7.94283 7.19018C7.9819 7.25334 8.03778 7.30437 8.10421 7.33757L8.90421 7.73757C8.96518 7.76803 9.03292 7.78242 9.10101 7.77935C9.16909 7.77628 9.23527 7.75587 9.29325 7.72005C9.35123 7.68422 9.3991 7.63418 9.43231 7.57466C9.46552 7.51514 9.48297 7.44812 9.48301 7.37997V4.97997C9.48297 4.91181 9.46552 4.84479 9.43231 4.78528C9.3991 4.72576 9.35123 4.67571 9.29325 4.63989C9.23527 4.60407 9.16909 4.58365 9.10101 4.58059C9.03292 4.57752 8.96518 4.5919 8.90421 4.62237L8.10421 5.02237Z" fill="#F9FAFB"/>
</svg>
