<svg width="24" height="25" viewBox="0 0 24 25" fill="none" xmlns="http://www.w3.org/2000/svg">
<path d="M16 3.33887C16.1326 3.33887 16.2597 3.39158 16.3535 3.48535C16.4473 3.57912 16.5 3.70626 16.5 3.83887V5.33887H19C19.663 5.33887 20.2987 5.60245 20.7676 6.07129C21.2364 6.54013 21.5 7.17583 21.5 7.83887V19.8389C21.5 20.5019 21.2364 21.1376 20.7676 21.6064C20.2987 22.0753 19.663 22.3389 19 22.3389H5C4.33696 22.3389 3.70126 22.0753 3.23242 21.6064C2.76358 21.1376 2.5 20.5019 2.5 19.8389V7.83887C2.5 7.17583 2.76358 6.54013 3.23242 6.07129C3.70126 5.60245 4.33696 5.33887 5 5.33887H7.5V3.83887C7.5 3.70626 7.55272 3.57912 7.64648 3.48535C7.71689 3.41495 7.80611 3.3678 7.90234 3.34863L8 3.33887C8.13261 3.33887 8.25975 3.39158 8.35352 3.48535C8.44728 3.57912 8.5 3.70626 8.5 3.83887V5.33887H15.5V3.83887C15.5 3.70626 15.5527 3.57912 15.6465 3.48535C15.7169 3.41495 15.8061 3.3678 15.9023 3.34863L16 3.33887ZM3.5 19.8389C3.5 20.2367 3.65815 20.6181 3.93945 20.8994C4.22076 21.1807 4.60218 21.3389 5 21.3389H19C19.3978 21.3389 19.7792 21.1807 20.0605 20.8994C20.3419 20.6181 20.5 20.2367 20.5 19.8389V12.3389H3.5V19.8389ZM5 6.33887C4.60217 6.33887 4.22076 6.49702 3.93945 6.77832C3.65815 7.05962 3.5 7.44104 3.5 7.83887V11.3389H20.5V7.83887C20.5 7.44104 20.3419 7.05963 20.0605 6.77832C19.7792 6.49702 19.3978 6.33887 19 6.33887H16.5V7.83887C16.5 7.97148 16.4473 8.09862 16.3535 8.19238C16.2597 8.28615 16.1326 8.33887 16 8.33887C15.8674 8.33887 15.7403 8.28615 15.6465 8.19238C15.5527 8.09861 15.5 7.97147 15.5 7.83887V6.33887H8.5V7.83887C8.5 7.97147 8.44728 8.09861 8.35352 8.19238C8.25975 8.28615 8.13261 8.33887 8 8.33887C7.86739 8.33887 7.74025 8.28615 7.64648 8.19238C7.55272 8.09861 7.5 7.97147 7.5 7.83887V6.33887H5Z" fill="black" stroke="#6C63FF"/>
</svg>
