<svg width="24" height="25" viewBox="0 0 24 25" fill="none" xmlns="http://www.w3.org/2000/svg">
<g clip-path="url(#clip0_50_981)">
<path d="M24 12.499C24 15.814 22.6575 18.8136 20.484 20.9854C18.314 23.1572 15.3131 24.5 11.9999 24.5C5.37357 24.5 0 19.1277 0 12.4992C0 9.18576 1.34252 6.18622 3.516 4.01443C5.68599 1.84263 8.68694 0.5 12.0001 0.5C15.3133 0.5 18.3142 1.84263 20.4842 4.01443C22.6575 6.18602 24 9.18535 24 12.499Z" fill="#00BFA6"/>
<path d="M19.0117 5.4832L10.2397 19.6857C10.0628 19.9722 9.65121 19.9859 9.45554 19.7121L4.99634 13.4698C4.83583 13.2451 5.09571 12.9607 5.33391 13.1003L9.55695 15.577L18.6009 5.18057C18.8074 4.94358 19.1769 5.21574 19.0117 5.4832Z" fill="white"/>
</g>
<defs>
<clipPath id="clip0_50_981">
<rect width="24" height="24" fill="white" transform="translate(0 0.5)"/>
</clipPath>
</defs>
</svg>
