<svg width="24" height="25" viewBox="0 0 24 25" fill="none" xmlns="http://www.w3.org/2000/svg">
<path d="M15 21.8389V13.8389C15 13.5737 14.8946 13.3193 14.7071 13.1318C14.5196 12.9442 14.2652 12.8389 14 12.8389H10C9.73478 12.8389 9.48043 12.9442 9.29289 13.1318C9.10536 13.3193 9 13.5737 9 13.8389V21.8389" stroke="#1F2937" stroke-width="2" stroke-linecap="round" stroke-linejoin="round"/>
<path d="M3 10.8389C2.99993 10.5479 3.06333 10.2605 3.18579 9.99658C3.30824 9.73268 3.4868 9.49866 3.709 9.31087L10.709 3.31187C11.07 3.00677 11.5274 2.83939 12 2.83939C12.4726 2.83939 12.93 3.00677 13.291 3.31187L20.291 9.31087C20.5132 9.49866 20.6918 9.73268 20.8142 9.99658C20.9367 10.2605 21.0001 10.5479 21 10.8389V19.8389C21 20.3693 20.7893 20.878 20.4142 21.2531C20.0391 21.6282 19.5304 21.8389 19 21.8389H5C4.46957 21.8389 3.96086 21.6282 3.58579 21.2531C3.21071 20.878 3 20.3693 3 19.8389V10.8389Z" stroke="#1F2937" stroke-width="2" stroke-linecap="round" stroke-linejoin="round"/>
</svg>
