<svg width="20" height="22" viewBox="0 0 20 22" fill="none" xmlns="http://www.w3.org/2000/svg">
<path d="M13 20.8101V12.8101C13 12.5449 12.8946 12.2905 12.7071 12.103C12.5196 11.9155 12.2652 11.8101 12 11.8101H8C7.73478 11.8101 7.48043 11.9155 7.29289 12.103C7.10536 12.2905 7 12.5449 7 12.8101V20.8101" stroke="#1F2937" stroke-width="2" stroke-linecap="round" stroke-linejoin="round"/>
<path d="M1 9.81012C0.99993 9.51919 1.06333 9.23174 1.18579 8.96783C1.30824 8.70393 1.4868 8.46991 1.709 8.28212L8.709 2.28312C9.06999 1.97803 9.52736 1.81064 10 1.81064C10.4726 1.81064 10.93 1.97803 11.291 2.28312L18.291 8.28212C18.5132 8.46991 18.6918 8.70393 18.8142 8.96783C18.9367 9.23174 19.0001 9.51919 19 9.81012V18.8101C19 19.3406 18.7893 19.8493 18.4142 20.2243C18.0391 20.5994 17.5304 20.8101 17 20.8101H3C2.46957 20.8101 1.96086 20.5994 1.58579 20.2243C1.21071 19.8493 1 19.3406 1 18.8101V9.81012Z" stroke="#1F2937" stroke-width="2" stroke-linecap="round" stroke-linejoin="round"/>
</svg>
