<svg width="24" height="25" viewBox="0 0 24 25" fill="none" xmlns="http://www.w3.org/2000/svg">
<path d="M15 21.7998V13.7998C15 13.5346 14.8946 13.2802 14.7071 13.0927C14.5196 12.9052 14.2652 12.7998 14 12.7998H10C9.73478 12.7998 9.48043 12.9052 9.29289 13.0927C9.10536 13.2802 9 13.5346 9 13.7998V21.7998" stroke="#6C63FF" stroke-width="2" stroke-linecap="round" stroke-linejoin="round"/>
<path d="M3 10.7998C2.99993 10.5089 3.06333 10.2214 3.18579 9.95752C3.30824 9.69361 3.4868 9.4596 3.709 9.2718L10.709 3.2728C11.07 2.96771 11.5274 2.80032 12 2.80032C12.4726 2.80032 12.93 2.96771 13.291 3.2728L20.291 9.2718C20.5132 9.4596 20.6918 9.69361 20.8142 9.95752C20.9367 10.2214 21.0001 10.5089 21 10.7998V19.7998C21 20.3302 20.7893 20.8389 20.4142 21.214C20.0391 21.5891 19.5304 21.7998 19 21.7998H5C4.46957 21.7998 3.96086 21.5891 3.58579 21.214C3.21071 20.8389 3 20.3302 3 19.7998V10.7998Z" stroke="#6C63FF" stroke-width="2" stroke-linecap="round" stroke-linejoin="round"/>
</svg>
