<svg width="20" height="20" viewBox="0 0 20 20" fill="none" xmlns="http://www.w3.org/2000/svg">
<path fill-rule="evenodd" clip-rule="evenodd" d="M3.75 10C3.75 6.54822 6.54822 3.75 10 3.75C13.4518 3.75 16.25 6.54822 16.25 10C16.25 13.4518 13.4518 16.25 10 16.25C6.54822 16.25 3.75 13.4518 3.75 10ZM10 5C7.23858 5 5 7.23858 5 10C5 12.7614 7.23858 15 10 15C12.7614 15 15 12.7614 15 10C15 7.23858 12.7614 5 10 5Z" fill="#1A1A1A" fill-opacity="0.61"/>
<path fill-rule="evenodd" clip-rule="evenodd" d="M10 10C10.3452 10 10.625 10.2798 10.625 10.625V13.125C10.625 13.4702 10.3452 13.75 10 13.75C9.65482 13.75 9.375 13.4702 9.375 13.125V10.625C9.375 10.2798 9.65482 10 10 10Z" fill="#1A1A1A" fill-opacity="0.61"/>
<path fill-rule="evenodd" clip-rule="evenodd" d="M10 7.92755C10.0863 7.92755 10.1562 7.85759 10.1562 7.7713C10.1562 7.68501 10.0863 7.61505 10 7.61505V6.67755C9.39593 6.67755 8.90625 7.16724 8.90625 7.7713C8.90625 8.37537 9.39593 8.86505 10 8.86505V7.92755Z" fill="#1A1A1A" fill-opacity="0.61"/>
<path fill-rule="evenodd" clip-rule="evenodd" d="M10 6.67755C10.6041 6.67755 11.0938 7.16724 11.0938 7.7713C11.0938 8.37537 10.6041 8.86505 10 8.86505V7.92755C9.91371 7.92755 9.84375 7.85759 9.84375 7.7713C9.84375 7.68501 9.91371 7.61505 10 7.61505V6.67755Z" fill="#1A1A1A" fill-opacity="0.61"/>
</svg>
