<svg width="33" height="33" viewBox="0 0 32 33" fill="none" xmlns="http://www.w3.org/2000/svg">
<rect x="2" y="2.89404" width="28" height="28" rx="6" fill="currentColor"/>
<rect x="2" y="2.89404" width="28" height="28" rx="6" fill="currentColor"/>
<path d="M23 11.394C23 12.2225 22.3284 12.894 21.5 12.894C20.6716 12.894 20 12.2225 20 11.394C20 10.5656 20.6716 9.89404 21.5 9.89404C22.3284 9.89404 23 10.5656 23 11.394Z" fill="#F9FAFB"/>
<path fill-rule="evenodd" clip-rule="evenodd" d="M16 21.894C18.7614 21.894 21 19.6555 21 16.894C21 14.1326 18.7614 11.894 16 11.894C13.2386 11.894 11 14.1326 11 16.894C11 19.6555 13.2386 21.894 16 21.894ZM16 19.894C17.6569 19.894 19 18.5509 19 16.894C19 15.2372 17.6569 13.894 16 13.894C14.3431 13.894 13 15.2372 13 16.894C13 18.5509 14.3431 19.894 16 19.894Z" fill="#F9FAFB"/>
<path fill-rule="evenodd" clip-rule="evenodd" d="M6 16.494C6 13.1337 6 11.4536 6.65396 10.1701C7.2292 9.04113 8.14708 8.12324 9.27606 7.548C10.5595 6.89404 12.2397 6.89404 15.6 6.89404H16.4C19.7603 6.89404 21.4405 6.89404 22.7239 7.548C23.8529 8.12324 24.7708 9.04113 25.346 10.1701C26 11.4536 26 13.1337 26 16.494V17.294C26 20.6544 26 22.3345 25.346 23.618C24.7708 24.747 23.8529 25.6648 22.7239 26.2401C21.4405 26.894 19.7603 26.894 16.4 26.894H15.6C12.2397 26.894 10.5595 26.894 9.27606 26.2401C8.14708 25.6648 7.2292 24.747 6.65396 23.618C6 22.3345 6 20.6544 6 17.294V16.494ZM15.6 8.89404H16.4C18.1132 8.89404 19.2777 8.8956 20.1779 8.96915C21.0548 9.04079 21.5032 9.17064 21.816 9.33002C22.5686 9.71351 23.1805 10.3254 23.564 11.0781C23.7234 11.3909 23.8533 11.8393 23.9249 12.7161C23.9984 13.6163 24 14.7809 24 16.494V17.294C24 19.0072 23.9984 20.1718 23.9249 21.072C23.8533 21.9488 23.7234 22.3972 23.564 22.71C23.1805 23.4627 22.5686 24.0746 21.816 24.4581C21.5032 24.6174 21.0548 24.7473 20.1779 24.8189C19.2777 24.8925 18.1132 24.894 16.4 24.894H15.6C13.8868 24.894 12.7223 24.8925 11.8221 24.8189C10.9452 24.7473 10.4968 24.6174 10.184 24.4581C9.43139 24.0746 8.81947 23.4627 8.43597 22.71C8.27659 22.3972 8.14674 21.9488 8.0751 21.072C8.00156 20.1718 8 19.0072 8 17.294V16.494C8 14.7809 8.00156 13.6163 8.0751 12.7161C8.14674 11.8393 8.27659 11.3909 8.43597 11.0781C8.81947 10.3254 9.43139 9.71351 10.184 9.33002C10.4968 9.17064 10.9452 9.04079 11.8221 8.96915C12.7223 8.8956 13.8868 8.89404 15.6 8.89404Z" fill="#F9FAFB"/>
</svg>
