<svg width="33" height="31" viewBox="0 0 33 31" fill="none" xmlns="http://www.w3.org/2000/svg">
<path d="M15.7133 2.5H4.65851C3.82082 2.5 3.01744 2.81607 2.42511 3.37868C1.83277 3.94129 1.5 4.70435 1.5 5.5V26.5C1.5 27.2956 1.83277 28.0587 2.42511 28.6213C3.01744 29.1839 3.82082 29.5 4.65851 29.5H26.7681C27.6057 29.5 28.4091 29.1839 29.0015 28.6213C29.5938 28.0587 29.9266 27.2956 29.9266 26.5V16" stroke="#6C63FF" stroke-width="2" stroke-linecap="round" stroke-linejoin="round"/>
<path d="M25.7807 1.93747C26.409 1.34074 27.2611 1.00549 28.1496 1.00549C29.0381 1.00549 29.8902 1.34074 30.5185 1.93747C31.1467 2.53421 31.4997 3.34356 31.4997 4.18747C31.4997 5.03139 31.1467 5.84074 30.5185 6.43747L16.2847 19.9585C15.9097 20.3143 15.4464 20.5748 14.9376 20.716L10.4004 21.976C10.2645 22.0136 10.1204 22.0159 9.9833 21.9825C9.84618 21.9491 9.72102 21.8814 9.62092 21.7863C9.52083 21.6912 9.44948 21.5724 9.41435 21.4421C9.37922 21.3119 9.3816 21.175 9.42123 21.046L10.7478 16.7365C10.8971 16.2535 11.1719 15.8141 11.5469 15.4585L25.7807 1.93747Z" stroke="#6C63FF" stroke-width="2" stroke-linecap="round" stroke-linejoin="round"/>
</svg>
