<svg width="158" height="56" viewBox="0 0 158 56" fill="none" xmlns="http://www.w3.org/2000/svg">
<path d="M20.5088 0C25.3879 0 29.3436 3.94371 29.3438 8.80859C29.3438 12.4085 27.1765 15.5017 24.0732 16.8682L25.6846 20.7695C26.5846 20.4613 27.5498 20.292 28.5547 20.292C33.4338 20.292 37.3895 24.2357 37.3896 29.1006C37.3896 32.7425 35.1721 35.8675 32.0107 37.209L33.5615 42.3213C34.4641 41.9133 35.466 41.6846 36.5215 41.6846C40.4857 41.6846 43.699 44.8892 43.6992 48.8418C43.6992 52.7946 40.4858 56 36.5215 56C32.5571 56 29.3438 52.7946 29.3438 48.8418C29.3439 46.3101 30.6628 44.0867 32.6523 42.8145L31.0244 37.5576C30.2404 37.7849 29.4123 37.9101 28.5547 37.9102C27.1132 37.9102 25.7538 37.5626 24.5518 36.9521L18.5205 40.8896L18.4209 40.8369C20.0956 42.4399 21.1396 44.6929 21.1396 47.1904C21.1396 52.0553 17.1847 55.9998 12.3057 56C7.42646 56 3.4707 52.0555 3.4707 47.1904C3.47081 42.3255 7.42653 38.3818 12.3057 38.3818C14.3389 38.3819 16.2102 39.0687 17.7031 40.2197L23.5488 36.3584C21.2366 34.7698 19.7197 32.1122 19.7197 29.1006C19.7198 25.5741 21.7988 22.5321 24.8008 21.125L23.1426 17.2188C22.3107 17.4775 21.4262 17.6182 20.5088 17.6182C15.6296 17.6181 11.6738 13.6736 11.6738 8.80859C11.674 3.94373 15.6297 2.62094e-05 20.5088 0ZM78.4541 35.1914C79.1482 35.1914 79.7951 35.271 80.3945 35.4287C81.0096 35.5707 81.6012 35.7989 82.1689 36.1143C82.4055 36.2404 82.5637 36.4063 82.6426 36.6113C82.7372 36.8163 82.7611 37.0293 82.7139 37.25C82.6665 37.4551 82.5717 37.6448 82.4297 37.8184C82.2878 37.976 82.1064 38.0786 81.8857 38.126C81.6808 38.1575 81.4438 38.1104 81.1758 37.9844C80.6868 37.732 80.2133 37.5499 79.7559 37.4395C79.3141 37.329 78.8877 37.2744 78.4775 37.2744C77.7046 37.2744 77.1286 37.4086 76.75 37.6768C76.3874 37.9449 76.2061 38.2996 76.2061 38.7412C76.2061 39.0724 76.3164 39.3485 76.5371 39.5693C76.758 39.7902 77.0972 39.9406 77.5547 40.0195L79.9209 40.4688C80.9463 40.658 81.7196 41.005 82.2402 41.5098C82.7766 42.0146 83.0449 42.6931 83.0449 43.5449C83.0449 44.6965 82.5955 45.604 81.6963 46.2666C80.7971 46.9134 79.5974 47.2363 78.0986 47.2363C77.4204 47.2363 76.7024 47.1654 75.9453 47.0234C75.1882 46.8814 74.5095 46.6371 73.9102 46.29C73.658 46.1324 73.4766 45.951 73.3662 45.7461C73.2716 45.5252 73.2323 45.3115 73.248 45.1064C73.2796 44.8859 73.3583 44.6967 73.4844 44.5391C73.6263 44.3814 73.7999 44.2788 74.0049 44.2314C74.2257 44.1841 74.4625 44.2235 74.7148 44.3496C75.3459 44.6494 75.9381 44.8621 76.4902 44.9883C77.0423 45.0987 77.5867 45.1543 78.123 45.1543C78.8801 45.1543 79.4399 45.0278 79.8027 44.7754C80.1814 44.5072 80.3711 44.1603 80.3711 43.7344C80.3711 43.3715 80.2446 43.0956 79.9922 42.9062C79.7555 42.7012 79.3924 42.5507 78.9033 42.4561L76.5371 42.0068C75.5592 41.8175 74.8096 41.4629 74.2891 40.9424C73.7842 40.406 73.5322 39.7189 73.5322 38.8828C73.5323 38.1257 73.7374 37.471 74.1475 36.9189C74.5734 36.3669 75.1571 35.9413 75.8984 35.6416C76.6399 35.3419 77.4918 35.1914 78.4541 35.1914ZM90.0088 35.1914C90.7029 35.1914 91.3497 35.271 91.9492 35.4287C92.5643 35.5707 93.1559 35.7989 93.7236 36.1143C93.9602 36.2404 94.1184 36.4063 94.1973 36.6113C94.2919 36.8163 94.3158 37.0293 94.2686 37.25C94.2212 37.4551 94.1264 37.6448 93.9844 37.8184C93.8425 37.976 93.6611 38.0786 93.4404 38.126C93.2355 38.1575 92.9985 38.1104 92.7305 37.9844C92.2415 37.732 91.768 37.5499 91.3105 37.4395C90.8688 37.329 90.4424 37.2744 90.0322 37.2744C89.2593 37.2744 88.6833 37.4086 88.3047 37.6768C87.9421 37.9449 87.7607 38.2996 87.7607 38.7412C87.7607 39.0724 87.871 39.3485 88.0918 39.5693C88.3126 39.7902 88.6519 39.9406 89.1094 40.0195L91.4756 40.4688C92.5009 40.658 93.2743 41.005 93.7949 41.5098C94.3313 42.0146 94.5996 42.6931 94.5996 43.5449C94.5996 44.6965 94.1502 45.604 93.251 46.2666C92.3517 46.9134 91.152 47.2363 89.6533 47.2363C88.9751 47.2363 88.2571 47.1654 87.5 47.0234C86.7429 46.8814 86.0642 46.6371 85.4648 46.29C85.2127 46.1324 85.0313 45.951 84.9209 45.7461C84.8262 45.5252 84.787 45.3115 84.8027 45.1064C84.8343 44.8859 84.913 44.6967 85.0391 44.5391C85.181 44.3814 85.3546 44.2788 85.5596 44.2314C85.7804 44.1841 86.0172 44.2235 86.2695 44.3496C86.9006 44.6494 87.4928 44.8621 88.0449 44.9883C88.597 45.0987 89.1414 45.1543 89.6777 45.1543C90.4348 45.1543 90.9946 45.0278 91.3574 44.7754C91.736 44.5072 91.9258 44.1603 91.9258 43.7344C91.9258 43.3715 91.7993 43.0956 91.5469 42.9062C91.3102 42.7012 90.9471 42.5507 90.458 42.4561L88.0918 42.0068C87.1138 41.8175 86.3643 41.4629 85.8438 40.9424C85.3389 40.406 85.0869 39.7189 85.0869 38.8828C85.087 38.1257 85.292 37.471 85.7021 36.9189C86.1281 36.3669 86.7118 35.9413 87.4531 35.6416C88.1946 35.3419 89.0464 35.1914 90.0088 35.1914ZM107.595 35.1914C108.289 35.1914 108.936 35.271 109.535 35.4287C110.15 35.5707 110.743 35.7987 111.311 36.1143C111.547 36.2404 111.704 36.4064 111.783 36.6113C111.878 36.8163 111.902 37.0293 111.854 37.25C111.807 37.4551 111.712 37.6448 111.57 37.8184C111.428 37.976 111.247 38.0787 111.026 38.126C110.821 38.1575 110.585 38.1105 110.316 37.9844C109.827 37.732 109.354 37.5499 108.896 37.4395C108.455 37.3291 108.029 37.2745 107.619 37.2744C106.846 37.2744 106.27 37.4086 105.892 37.6768C105.529 37.9449 105.347 38.2995 105.347 38.7412C105.347 39.0725 105.458 39.3485 105.679 39.5693C105.9 39.7901 106.238 39.9407 106.695 40.0195L109.062 40.4688C110.088 40.658 110.86 41.0051 111.381 41.5098C111.917 42.0146 112.186 42.6931 112.186 43.5449C112.186 44.6966 111.736 45.604 110.837 46.2666C109.938 46.9133 108.739 47.2363 107.24 47.2363C106.562 47.2363 105.844 47.1654 105.087 47.0234C104.33 46.8815 103.651 46.6371 103.052 46.29C102.799 46.1323 102.617 45.9512 102.507 45.7461C102.412 45.5252 102.373 45.3115 102.389 45.1064C102.42 44.8857 102.5 44.6967 102.626 44.5391C102.768 44.3814 102.941 44.2788 103.146 44.2314C103.367 44.1842 103.604 44.2234 103.856 44.3496C104.487 44.6493 105.079 44.8621 105.631 44.9883C106.183 45.0987 106.727 45.1543 107.264 45.1543C108.021 45.1543 108.581 45.0278 108.944 44.7754C109.323 44.5072 109.512 44.1602 109.512 43.7344C109.512 43.3715 109.385 43.0956 109.133 42.9062C108.896 42.7013 108.534 42.5507 108.045 42.4561L105.679 42.0068C104.701 41.8175 103.95 41.463 103.43 40.9424C102.925 40.406 102.673 39.7189 102.673 38.8828C102.673 38.1257 102.878 37.471 103.288 36.9189C103.714 36.3669 104.298 35.9413 105.039 35.6416C105.78 35.3419 106.633 35.1914 107.595 35.1914ZM116.645 31.7842C117.118 31.7843 117.48 31.9107 117.732 32.1631C117.985 32.4154 118.111 32.7856 118.111 33.2744V35.4287H120.62C120.998 35.4288 121.29 35.5228 121.495 35.7119C121.7 35.9011 121.803 36.1774 121.803 36.54C121.803 36.8871 121.7 37.1641 121.495 37.3691C121.29 37.5582 120.998 37.6523 120.62 37.6523H118.111V42.5273C118.111 43.2846 118.277 43.8528 118.608 44.2314C118.94 44.61 119.476 44.7988 120.218 44.7988C120.486 44.7988 120.723 44.7758 120.928 44.7285C121.133 44.6812 121.314 44.6496 121.472 44.6338C121.661 44.618 121.819 44.6813 121.945 44.8232C122.071 44.9496 122.134 45.2182 122.134 45.6279C122.134 45.9433 122.079 46.2272 121.969 46.4795C121.874 46.7161 121.692 46.8819 121.424 46.9766C121.219 47.0396 120.951 47.0943 120.62 47.1416C120.289 47.2047 119.997 47.2363 119.744 47.2363C118.719 47.2363 117.859 47.0628 117.165 46.7158C116.487 46.3687 115.982 45.8638 115.65 45.2012C115.319 44.5229 115.153 43.687 115.153 42.6934V37.6523H113.923C113.544 37.6523 113.252 37.5584 113.047 37.3691C112.842 37.1641 112.739 36.8871 112.739 36.54C112.739 36.1774 112.842 35.9011 113.047 35.7119C113.252 35.5226 113.544 35.4287 113.923 35.4287H115.153V33.2744C115.153 32.7856 115.28 32.4154 115.532 32.1631C115.8 31.9107 116.171 31.7842 116.645 31.7842ZM128.471 35.1914C129.607 35.1914 130.538 35.3648 131.264 35.7119C132.005 36.059 132.557 36.5879 132.92 37.2979C133.283 37.9919 133.464 38.891 133.464 39.9951V45.6748C133.464 46.1638 133.346 46.5424 133.109 46.8105C132.873 47.063 132.534 47.1894 132.092 47.1895C131.65 47.1895 131.303 47.0629 131.051 46.8105C130.814 46.5424 130.695 46.1639 130.695 45.6748V45.1738C130.576 45.4683 130.42 45.7383 130.223 45.9824C129.907 46.3768 129.505 46.6844 129.016 46.9053C128.527 47.1261 127.966 47.2363 127.335 47.2363C126.499 47.2363 125.749 47.0792 125.087 46.7637C124.44 46.4324 123.927 45.9906 123.549 45.4385C123.186 44.8863 123.005 44.2625 123.005 43.5684C123.005 42.7168 123.226 42.0466 123.667 41.5576C124.109 41.0529 124.827 40.6896 125.82 40.4688C126.814 40.2479 128.148 40.1377 129.82 40.1377H130.648V39.6406C130.648 38.8519 130.475 38.2836 130.128 37.9365C129.781 37.5895 129.197 37.4161 128.377 37.416C127.919 37.416 127.422 37.4716 126.886 37.582C126.365 37.6924 125.813 37.8813 125.229 38.1494C124.93 38.2914 124.661 38.3306 124.425 38.2676C124.204 38.2045 124.03 38.0788 123.904 37.8896C123.778 37.6846 123.715 37.4632 123.715 37.2266C123.715 36.99 123.778 36.7608 123.904 36.54C124.031 36.3036 124.243 36.1299 124.543 36.0195C125.268 35.7199 125.963 35.5071 126.625 35.3809C127.303 35.2547 127.919 35.1914 128.471 35.1914ZM152.51 31.7842C152.983 31.7842 153.346 31.9107 153.599 32.1631C153.851 32.4154 153.977 32.7858 153.978 33.2744V35.4287H156.485C156.864 35.4287 157.156 35.5226 157.361 35.7119C157.566 35.9011 157.669 36.1774 157.669 36.54C157.669 36.8871 157.566 37.1641 157.361 37.3691C157.156 37.5584 156.864 37.6523 156.485 37.6523H153.978V42.5273C153.978 43.2845 154.142 43.8528 154.474 44.2314C154.805 44.61 155.342 44.7988 156.083 44.7988C156.351 44.7988 156.588 44.7758 156.793 44.7285C156.998 44.6812 157.18 44.6496 157.338 44.6338C157.527 44.6182 157.684 44.6814 157.811 44.8232C157.937 44.9495 158 45.2179 158 45.6279C158 45.9433 157.944 46.2272 157.834 46.4795C157.739 46.716 157.558 46.8819 157.29 46.9766C157.085 47.0397 156.817 47.0943 156.485 47.1416C156.154 47.2047 155.863 47.2363 155.61 47.2363C154.585 47.2363 153.724 47.0629 153.03 46.7158C152.352 46.3688 151.847 45.8637 151.516 45.2012C151.184 44.5229 151.02 43.6869 151.02 42.6934V37.6523H149.788C149.41 37.6523 149.118 37.5582 148.913 37.3691C148.708 37.1641 148.605 36.8871 148.605 36.54C148.606 36.1774 148.708 35.9011 148.913 35.7119C149.118 35.5228 149.41 35.4288 149.788 35.4287H151.02V33.2744C151.02 32.7858 151.145 32.4154 151.397 32.1631C151.666 31.9107 152.037 31.7842 152.51 31.7842ZM63.7275 30.1279C64.0903 30.128 64.4134 30.2305 64.6973 30.4355C64.997 30.6249 65.25 30.9478 65.4551 31.4053L71.7256 45.249C71.8991 45.6118 71.9624 45.9434 71.915 46.2432C71.8677 46.5427 71.7335 46.7797 71.5127 46.9531C71.2919 47.1108 70.9994 47.1895 70.6367 47.1895C70.1952 47.1894 69.848 47.0869 69.5957 46.8818C69.3591 46.661 69.1463 46.3294 68.957 45.8877L67.7754 43.1426H59.6377L58.4736 45.8877C58.2685 46.3452 58.0558 46.6767 57.835 46.8818C57.6142 47.0868 57.2987 47.1894 56.8887 47.1895C56.5101 47.1895 56.2024 47.1022 55.9658 46.9287C55.7451 46.7553 55.6109 46.5269 55.5635 46.2432C55.5162 45.9435 55.5708 45.6118 55.7285 45.249L61.9766 31.4053C62.1816 30.9479 62.426 30.6248 62.71 30.4355C63.0097 30.2305 63.3489 30.1279 63.7275 30.1279ZM143.211 35.1914C144.141 35.1914 144.906 35.365 145.506 35.7119C146.105 36.059 146.556 36.5879 146.855 37.2979C147.155 37.992 147.305 38.8756 147.305 39.9482V45.6748C147.305 46.1639 147.178 46.5424 146.926 46.8105C146.673 47.0628 146.311 47.1894 145.838 47.1895C145.365 47.1895 144.994 47.0629 144.726 46.8105C144.473 46.5424 144.347 46.1639 144.347 45.6748V40.0898C144.347 39.1907 144.173 38.5361 143.826 38.126C143.495 37.7159 142.974 37.5108 142.265 37.5107C141.397 37.5107 140.702 37.7867 140.182 38.3389C139.677 38.8752 139.425 39.5931 139.425 40.4922V45.6748C139.425 46.6845 138.927 47.1895 137.934 47.1895C137.461 47.1894 137.098 47.0628 136.846 46.8105C136.593 46.5424 136.467 46.1639 136.467 45.6748V36.7295C136.467 36.2406 136.593 35.8695 136.846 35.6172C137.098 35.3651 137.453 35.2393 137.91 35.2393C138.367 35.2393 138.722 35.3651 138.975 35.6172C139.227 35.8695 139.353 36.2406 139.354 36.7295V37.2227C139.689 36.6427 140.137 36.186 140.702 35.8545C141.444 35.4128 142.28 35.1914 143.211 35.1914ZM98.4395 35.2627C98.9127 35.2627 99.2759 35.4046 99.5283 35.6885C99.7965 35.9567 99.9307 36.3515 99.9307 36.8721V45.5566C99.9306 46.0613 99.8041 46.4553 99.5518 46.7393C99.2993 47.0232 98.9285 47.166 98.4395 47.166C97.9664 47.1659 97.6039 47.0232 97.3516 46.7393C97.0992 46.4553 96.9727 46.0613 96.9727 45.5566V36.8721C96.9727 36.3515 97.0991 35.9567 97.3516 35.6885C97.6039 35.4047 97.9665 35.2628 98.4395 35.2627ZM129.844 41.8408C128.866 41.8408 128.085 41.8887 127.501 41.9834C126.917 42.0781 126.499 42.2438 126.247 42.4805C126.01 42.7013 125.892 43.0166 125.892 43.4268C125.892 43.9474 126.074 44.3728 126.437 44.7041C126.799 45.0353 127.304 45.2011 127.95 45.2012C128.471 45.2012 128.929 45.0833 129.323 44.8467C129.733 44.5943 130.056 44.2549 130.293 43.8291C130.53 43.4033 130.648 42.9143 130.648 42.3623V41.8408H129.844ZM60.6855 40.7295H66.7432L63.7275 33.6064H63.6797L60.6855 40.7295ZM6.38965 22.3369C9.91819 22.3371 12.7783 25.1897 12.7783 28.708C12.7781 32.2262 9.91807 35.0779 6.38965 35.0781C2.86106 35.0781 0.000202621 32.2263 0 28.708C0 25.1895 2.86094 22.3369 6.38965 22.3369ZM98.4395 29.9385C99.0074 29.9385 99.4415 30.0726 99.7412 30.3408C100.041 30.609 100.191 30.9952 100.191 31.5C100.191 31.989 100.041 32.3752 99.7412 32.6592C99.4415 32.9274 99.0074 33.0615 98.4395 33.0615C97.8875 33.0615 97.4541 32.9273 97.1387 32.6592C96.8389 32.3752 96.6885 31.9891 96.6885 31.5C96.6885 30.9952 96.8389 30.609 97.1387 30.3408C97.4541 30.0727 97.8875 29.9385 98.4395 29.9385ZM62.8281 9.08008C63.7746 9.08009 64.6736 9.19895 65.5254 9.43555C66.3773 9.67219 67.1429 10.0191 67.8213 10.4766C68.0736 10.6501 68.2395 10.8629 68.3184 11.1152C68.413 11.3676 68.436 11.6206 68.3887 11.873C68.3413 12.1095 68.231 12.3149 68.0576 12.4883C67.8842 12.6616 67.6634 12.7643 67.3955 12.7959C67.1431 12.8274 66.8508 12.7479 66.5195 12.5586C65.9359 12.2274 65.3445 11.9906 64.7451 11.8486C64.1457 11.7067 63.4987 11.6358 62.8047 11.6357C62.079 11.6357 61.4552 11.7383 60.9346 11.9434C60.4141 12.1484 60.0124 12.4408 59.7285 12.8193C59.4603 13.1822 59.3262 13.6163 59.3262 14.1211C59.3263 14.6888 59.5151 15.1462 59.8936 15.4932C60.2722 15.8245 60.919 16.0851 61.834 16.2744L64.4131 16.8184C65.9749 17.1497 67.1353 17.67 67.8926 18.3799C68.6655 19.0898 69.0517 20.0366 69.0518 21.2197C69.0518 21.9769 68.8936 22.6631 68.5781 23.2783C68.2784 23.8936 67.8366 24.4225 67.2529 24.8643C66.685 25.3059 65.9988 25.6452 65.1943 25.8818C64.3898 26.1185 63.4823 26.2363 62.4727 26.2363C61.7787 26.2363 61.0846 26.1817 60.3906 26.0713C59.6965 25.9766 59.042 25.8262 58.4268 25.6211C57.8116 25.4003 57.2595 25.1319 56.7705 24.8164C56.4867 24.6272 56.2892 24.3989 56.1787 24.1309C56.0683 23.8627 56.029 23.602 56.0605 23.3496C56.1079 23.0815 56.2104 22.8524 56.3682 22.6631C56.5416 22.4582 56.7546 22.3325 57.0068 22.2852C57.2592 22.2379 57.5352 22.3088 57.835 22.498C58.5291 22.9082 59.2632 23.2072 60.0361 23.3965C60.8089 23.5857 61.621 23.6806 62.4727 23.6807C63.719 23.6807 64.6264 23.4756 65.1943 23.0654C65.7622 22.6395 66.0459 22.0952 66.0459 21.4326C66.0458 20.8806 65.8408 20.4463 65.4307 20.1309C65.0362 19.8155 64.3498 19.5556 63.3721 19.3506L60.7695 18.8057C59.2709 18.4902 58.1507 17.9621 57.4092 17.2207C56.6835 16.4635 56.3204 15.4697 56.3203 14.2393C56.3203 13.4662 56.4784 12.7639 56.7939 12.1328C57.1095 11.5018 57.5512 10.9575 58.1191 10.5C58.7028 10.0426 59.389 9.6956 60.1777 9.45898C60.9823 9.20657 61.8658 9.08008 62.8281 9.08008ZM97.0654 14.1914C98.2011 14.1914 99.1318 14.365 99.8574 14.7119C100.599 15.059 101.152 15.5879 101.515 16.2979C101.877 16.9919 102.059 17.8911 102.059 18.9951V24.6748C102.059 25.1639 101.94 25.5424 101.703 25.8105C101.467 26.0628 101.128 26.1894 100.687 26.1895C100.245 26.1895 99.8969 26.063 99.6445 25.8105C99.408 25.5424 99.29 25.1637 99.29 24.6748V24.1729C99.171 24.4678 99.0139 24.7379 98.8164 24.9824C98.5009 25.3768 98.0984 25.6844 97.6094 25.9053C97.1204 26.126 96.5606 26.2363 95.9297 26.2363C95.0937 26.2363 94.3442 26.0791 93.6816 25.7637C93.0349 25.4324 92.5222 24.9905 92.1436 24.4385C91.7807 23.8863 91.5986 23.2625 91.5986 22.5684C91.5987 21.7167 91.8201 21.0466 92.2617 20.5576C92.7034 20.0528 93.4212 19.6896 94.415 19.4688C95.4089 19.2479 96.7419 19.1377 98.4141 19.1377H99.2422V18.6406C99.2422 17.8518 99.0688 17.2836 98.7217 16.9365C98.3746 16.5896 97.7909 16.416 96.9707 16.416C96.5132 16.416 96.0158 16.4716 95.4795 16.582C94.959 16.6925 94.4068 16.8813 93.8232 17.1494C93.5235 17.2914 93.2552 17.3307 93.0186 17.2676C92.7979 17.2044 92.6242 17.0788 92.498 16.8896C92.3718 16.6846 92.3086 16.4632 92.3086 16.2266C92.3086 15.99 92.3719 15.7608 92.498 15.54C92.6243 15.3035 92.8381 15.1299 93.1377 15.0195C93.8632 14.7199 94.5573 14.507 95.2197 14.3809C95.8981 14.2547 96.5133 14.1914 97.0654 14.1914ZM117.199 10.7842C117.672 10.7843 118.035 10.9108 118.287 11.1631C118.539 11.4154 118.666 11.7857 118.666 12.2744V14.4287H121.174C121.552 14.4287 121.845 14.5227 122.05 14.7119C122.255 14.9011 122.357 15.1774 122.357 15.54C122.357 15.8871 122.255 16.1641 122.05 16.3691C121.845 16.5583 121.552 16.6523 121.174 16.6523H118.666V21.5273C118.666 22.2846 118.832 22.8528 119.163 23.2314C119.494 23.6099 120.031 23.7988 120.772 23.7988C121.04 23.7988 121.277 23.7758 121.482 23.7285C121.687 23.6812 121.869 23.6496 122.026 23.6338C122.216 23.6181 122.373 23.6813 122.499 23.8232C122.625 23.9494 122.688 24.2178 122.688 24.6279C122.688 24.9433 122.634 25.2272 122.523 25.4795C122.429 25.7161 122.247 25.8819 121.979 25.9766C121.773 26.0396 121.505 26.0943 121.174 26.1416C120.843 26.2046 120.551 26.2363 120.299 26.2363C119.273 26.2363 118.414 26.0628 117.72 25.7158C117.041 25.3687 116.536 24.8638 116.205 24.2012C115.874 23.5229 115.708 22.6871 115.708 21.6934V16.6523H114.478C114.099 16.6523 113.807 16.5584 113.602 16.3691C113.396 16.1641 113.294 15.8871 113.294 15.54C113.294 15.1774 113.397 14.9011 113.602 14.7119C113.807 14.5226 114.099 14.4287 114.478 14.4287H115.708V12.2744C115.708 11.7856 115.835 11.4154 116.087 11.1631C116.355 10.9107 116.726 10.7842 117.199 10.7842ZM85.1631 14.1914C86.0465 14.1914 86.7729 14.3649 87.3408 14.7119C87.9245 15.059 88.3586 15.5879 88.6426 16.2979C88.9265 16.992 89.0684 17.8756 89.0684 18.9482V24.6748C89.0684 25.1638 88.9341 25.5424 88.666 25.8105C88.4136 26.063 88.0504 26.1895 87.5771 26.1895C87.1039 26.1894 86.7407 26.0629 86.4883 25.8105C86.2361 25.5424 86.1104 25.1637 86.1104 24.6748V19.0664C86.1104 18.183 85.9599 17.5361 85.6602 17.126C85.3762 16.7159 84.8874 16.5107 84.1934 16.5107C83.4203 16.5107 82.8128 16.7867 82.3711 17.3389C81.9294 17.8752 81.709 18.6246 81.709 19.5869V24.6748C81.709 25.1638 81.5824 25.5424 81.3301 25.8105C81.0777 26.063 80.7145 26.1895 80.2412 26.1895C79.768 26.1894 79.3971 26.0629 79.1289 25.8105C78.8766 25.5424 78.751 25.1637 78.751 24.6748V19.0664C78.751 18.183 78.6005 17.5361 78.3008 17.126C78.0168 16.7159 77.5357 16.5107 76.8574 16.5107C76.0844 16.5108 75.4769 16.7867 75.0352 17.3389C74.5935 17.8752 74.3731 18.6247 74.373 19.5869V24.6748C74.373 25.6845 73.8757 26.1895 72.8818 26.1895C72.4086 26.1894 72.0454 26.0629 71.793 25.8105C71.5407 25.5424 71.415 25.1637 71.415 24.6748V15.7295C71.4151 15.2406 71.5406 14.8695 71.793 14.6172C72.0454 14.3648 72.4009 14.2393 72.8584 14.2393C73.3156 14.2393 73.6705 14.365 73.9229 14.6172C74.1752 14.8695 74.3017 15.2406 74.3018 15.7295V16.2031C74.6045 15.6664 75.0068 15.2245 75.5088 14.8779C76.1714 14.4205 76.96 14.1914 77.875 14.1914C78.8058 14.1914 79.5714 14.4128 80.1709 14.8545C80.6702 15.2225 81.0406 15.7558 81.2881 16.4521C81.6073 15.8221 82.0616 15.312 82.6553 14.9248C83.3808 14.4359 84.2168 14.1915 85.1631 14.1914ZM111.592 14.1914C111.923 14.1599 112.184 14.2471 112.373 14.4521C112.578 14.6415 112.697 14.9414 112.729 15.3516C112.76 15.7457 112.665 16.069 112.444 16.3213C112.239 16.5578 111.924 16.6997 111.498 16.7471L110.977 16.7949C110.014 16.8896 109.289 17.1896 108.8 17.6943C108.311 18.1834 108.066 18.8773 108.066 19.7764V24.6748C108.066 25.1639 107.94 25.5424 107.688 25.8105C107.435 26.063 107.064 26.1895 106.575 26.1895C106.086 26.1894 105.708 26.0629 105.439 25.8105C105.187 25.5424 105.061 25.1638 105.061 24.6748V15.7295C105.061 15.2406 105.187 14.8695 105.439 14.6172C105.692 14.3649 106.047 14.2393 106.505 14.2393C106.962 14.2393 107.317 14.365 107.569 14.6172C107.822 14.8695 107.948 15.2406 107.948 15.7295V16.4824C108.193 15.8922 108.547 15.4199 109.013 15.0674C109.659 14.5784 110.519 14.2861 111.592 14.1914ZM98.4375 20.8408C97.4598 20.8408 96.6793 20.8888 96.0957 20.9834C95.512 21.0781 95.0932 21.2438 94.8408 21.4805C94.6044 21.7013 94.4863 22.0167 94.4863 22.4268C94.4863 22.9472 94.6676 23.3728 95.0303 23.7041C95.3931 24.0354 95.8981 24.2012 96.5449 24.2012C97.0654 24.2012 97.5227 24.0832 97.917 23.8467C98.3272 23.5943 98.6511 23.255 98.8877 22.8291C99.1243 22.4033 99.2421 21.9143 99.2422 21.3623V20.8408H98.4375Z" fill="url(#paint0_linear_69_2086)"/>
<defs>
<linearGradient id="paint0_linear_69_2086" x1="-35.8856" y1="87.9375" x2="128.713" y2="40.8553" gradientUnits="userSpaceOnUse">
<stop stop-color="#6C63FF"/>
<stop offset="1" stop-color="#00BFA6"/>
</linearGradient>
</defs>
</svg>
