<svg width="158" height="57" viewBox="0 0 158 57" fill="none" xmlns="http://www.w3.org/2000/svg">
<path d="M20.5088 0C25.388 0 29.3438 4.01371 29.3438 8.96484C29.3437 12.6285 27.1765 15.7763 24.0732 17.167L25.6846 21.1367C26.5846 20.8231 27.5498 20.6514 28.5547 20.6514C33.4339 20.6514 37.3896 24.6651 37.3896 29.6162C37.3895 33.3225 35.172 36.502 32.0107 37.8672L33.5625 43.0703C34.4649 42.6553 35.4663 42.4229 36.5215 42.4229C40.4858 42.4229 43.6992 45.6842 43.6992 49.707C43.6991 53.7297 40.4857 56.9902 36.5215 56.9902C32.5572 56.9902 29.3439 53.7297 29.3438 49.707C29.3438 47.1304 30.6627 44.8672 32.6523 43.5723L31.0244 38.2227C30.2404 38.4539 29.4122 38.581 28.5547 38.5811C27.1136 38.5811 25.7546 38.2275 24.5527 37.6064L18.5205 41.6133L18.4209 41.5596C20.0956 43.1909 21.1395 45.4837 21.1396 48.0254C21.1396 52.9764 17.1847 56.99 12.3057 56.9902C7.42646 56.9902 3.4707 52.9765 3.4707 48.0254C3.47095 43.0745 7.42661 39.0605 12.3057 39.0605C14.3389 39.0606 16.2101 39.7602 17.7031 40.9316L23.5488 37.002C21.2367 35.3853 19.7198 32.681 19.7197 29.6162C19.7197 26.0273 21.7989 22.9322 24.8008 21.5L23.1426 17.5234C22.3107 17.7868 21.4262 17.9297 20.5088 17.9297C15.6296 17.9297 11.6738 13.916 11.6738 8.96484C11.6738 4.01372 15.6296 2.66739e-05 20.5088 0ZM78.4541 34.876C79.1482 34.876 79.7951 34.9546 80.3945 35.1123C81.0097 35.2543 81.6011 35.4834 82.1689 35.7988C82.4056 35.925 82.5637 36.0908 82.6426 36.2959C82.7371 36.5009 82.7612 36.7138 82.7139 36.9346C82.6665 37.1397 82.5717 37.3294 82.4297 37.5029C82.2878 37.6605 82.1064 37.7632 81.8857 37.8105C81.6807 37.8421 81.4439 37.7941 81.1758 37.668C80.6868 37.4156 80.2133 37.2345 79.7559 37.124C79.3141 37.0136 78.8877 36.958 78.4775 36.958C77.7046 36.958 77.1286 37.0922 76.75 37.3604C76.3872 37.6285 76.2061 37.9841 76.2061 38.4258C76.2061 38.7569 76.3163 39.0331 76.5371 39.2539C76.7579 39.4747 77.0973 39.6242 77.5547 39.7031L79.9209 40.1533C80.9463 40.3426 81.7196 40.6895 82.2402 41.1943C82.7766 41.6992 83.0449 42.3776 83.0449 43.2295C83.0448 44.3809 82.5952 45.2877 81.6963 45.9502C80.7971 46.597 79.5974 46.9209 78.0986 46.9209C77.4204 46.9209 76.7024 46.85 75.9453 46.708C75.1882 46.566 74.5096 46.3216 73.9102 45.9746C73.6578 45.8169 73.4766 45.6347 73.3662 45.4297C73.2716 45.2089 73.2323 44.996 73.248 44.791C73.2796 44.5702 73.3582 44.3804 73.4844 44.2227C73.6263 44.065 73.7999 43.9624 74.0049 43.915C74.2257 43.8677 74.4625 43.908 74.7148 44.0342C75.3459 44.3339 75.9381 44.5466 76.4902 44.6729C77.0423 44.7832 77.5868 44.8379 78.123 44.8379C78.88 44.8379 79.4399 44.7122 79.8027 44.46C80.1812 44.1919 80.371 43.8447 80.3711 43.4189C80.3711 43.0561 80.2446 42.7792 79.9922 42.5898C79.7555 42.3849 79.3922 42.2352 78.9033 42.1406L76.5371 41.6914C75.559 41.5021 74.8097 41.1466 74.2891 40.626C73.7843 40.0896 73.5322 39.4034 73.5322 38.5674C73.5322 37.8102 73.7373 37.1557 74.1475 36.6035C74.5734 36.0514 75.157 35.6249 75.8984 35.3252C76.6399 35.0255 77.4918 34.876 78.4541 34.876ZM90.0088 34.876C90.7029 34.876 91.3497 34.9546 91.9492 35.1123C92.5644 35.2543 93.1558 35.4834 93.7236 35.7988C93.9603 35.925 94.1184 36.0908 94.1973 36.2959C94.2918 36.5009 94.3158 36.7138 94.2686 36.9346C94.2212 37.1397 94.1264 37.3294 93.9844 37.5029C93.8425 37.6605 93.6611 37.7632 93.4404 37.8105C93.2354 37.8421 92.9986 37.7941 92.7305 37.668C92.2415 37.4156 91.768 37.2345 91.3105 37.124C90.8688 37.0136 90.4424 36.958 90.0322 36.958C89.2593 36.958 88.6833 37.0922 88.3047 37.3604C87.9419 37.6285 87.7607 37.9841 87.7607 38.4258C87.7608 38.7569 87.871 39.0331 88.0918 39.2539C88.3126 39.4747 88.652 39.6242 89.1094 39.7031L91.4756 40.1533C92.501 40.3426 93.2743 40.6895 93.7949 41.1943C94.3313 41.6992 94.5996 42.3776 94.5996 43.2295C94.5995 44.3809 94.1499 45.2877 93.251 45.9502C92.3517 46.597 91.152 46.9209 89.6533 46.9209C88.9751 46.9209 88.2571 46.85 87.5 46.708C86.7429 46.566 86.0642 46.3216 85.4648 45.9746C85.2125 45.8169 85.0313 45.6347 84.9209 45.4297C84.8263 45.2089 84.787 44.996 84.8027 44.791C84.8343 44.5702 84.9129 44.3804 85.0391 44.2227C85.181 44.065 85.3546 43.9624 85.5596 43.915C85.7804 43.8677 86.0172 43.908 86.2695 44.0342C86.9006 44.3339 87.4928 44.5466 88.0449 44.6729C88.597 44.7832 89.1414 44.8379 89.6777 44.8379C90.4347 44.8379 90.9946 44.7122 91.3574 44.46C91.7359 44.1919 91.9257 43.8447 91.9258 43.4189C91.9258 43.0561 91.7993 42.7792 91.5469 42.5898C91.3102 42.3849 90.9469 42.2352 90.458 42.1406L88.0918 41.6914C87.1137 41.5021 86.3643 41.1466 85.8438 40.626C85.339 40.0896 85.0869 39.4034 85.0869 38.5674C85.0869 37.8102 85.292 37.1557 85.7021 36.6035C86.1281 36.0514 86.7117 35.6249 87.4531 35.3252C88.1946 35.0255 89.0465 34.876 90.0088 34.876ZM107.595 34.876C108.289 34.876 108.936 34.9546 109.535 35.1123C110.15 35.2543 110.743 35.4833 111.311 35.7988C111.547 35.925 111.704 36.0909 111.783 36.2959C111.878 36.501 111.902 36.7137 111.854 36.9346C111.807 37.1397 111.712 37.3294 111.57 37.5029C111.428 37.6605 111.247 37.7633 111.026 37.8105C110.821 37.8421 110.585 37.7942 110.316 37.668C109.827 37.4156 109.354 37.2345 108.896 37.124C108.455 37.0136 108.029 36.958 107.619 36.958C106.846 36.958 106.27 37.0923 105.892 37.3604C105.529 37.6285 105.347 37.9841 105.347 38.4258C105.347 38.7569 105.458 39.0331 105.679 39.2539C105.9 39.4745 106.238 39.6243 106.695 39.7031L109.062 40.1533C110.088 40.3426 110.86 40.6896 111.381 41.1943C111.917 41.6992 112.186 42.3776 112.186 43.2295C112.185 44.381 111.736 45.2877 110.837 45.9502C109.938 46.597 108.739 46.9209 107.24 46.9209C106.562 46.9209 105.844 46.85 105.087 46.708C104.33 46.566 103.651 46.3216 103.052 45.9746C102.799 45.8168 102.617 45.6348 102.507 45.4297C102.412 45.209 102.373 44.996 102.389 44.791C102.42 44.5702 102.5 44.3804 102.626 44.2227C102.768 44.0651 102.942 43.9623 103.146 43.915C103.367 43.8678 103.604 43.908 103.856 44.0342C104.487 44.3338 105.079 44.5467 105.631 44.6729C106.183 44.7833 106.727 44.8379 107.264 44.8379C108.021 44.8379 108.581 44.7124 108.944 44.46C109.323 44.1919 109.512 43.8446 109.512 43.4189C109.512 43.0561 109.385 42.7792 109.133 42.5898C108.896 42.385 108.534 42.2352 108.045 42.1406L105.679 41.6914C104.701 41.5021 103.95 41.1466 103.43 40.626C102.925 40.0896 102.673 39.4033 102.673 38.5674C102.673 37.8102 102.878 37.1556 103.288 36.6035C103.714 36.0514 104.298 35.6249 105.039 35.3252C105.78 35.0255 106.633 34.876 107.595 34.876ZM116.645 31.4678C117.118 31.4678 117.48 31.5945 117.732 31.8467C117.985 32.0991 118.111 32.4699 118.111 32.959V35.1123H120.62C120.999 35.1124 121.29 35.2073 121.495 35.3965C121.7 35.5858 121.803 35.8618 121.803 36.2246C121.803 36.5717 121.7 36.8476 121.495 37.0527C121.29 37.242 120.999 37.3368 120.62 37.3369H118.111V42.2119C118.111 42.9689 118.277 43.5365 118.608 43.915C118.94 44.2937 119.476 44.4834 120.218 44.4834C120.486 44.4834 120.723 44.4594 120.928 44.4121C121.133 44.3648 121.314 44.3331 121.472 44.3174C121.661 44.3016 121.819 44.3649 121.945 44.5068C122.071 44.6331 122.134 44.9015 122.134 45.3115C122.134 45.6269 122.079 45.9108 121.969 46.1631C121.874 46.3997 121.692 46.5655 121.424 46.6602C121.219 46.7232 120.951 46.7789 120.62 46.8262C120.289 46.8893 119.997 46.9209 119.744 46.9209C118.719 46.9209 117.859 46.7474 117.165 46.4004C116.487 46.0533 115.982 45.5483 115.65 44.8857C115.319 44.2074 115.153 43.3708 115.153 42.377V37.3369H113.923C113.544 37.3369 113.252 37.242 113.047 37.0527C112.842 36.8477 112.739 36.5715 112.739 36.2246C112.739 35.8619 112.842 35.5858 113.047 35.3965C113.252 35.2072 113.544 35.1123 113.923 35.1123H115.153V32.959C115.153 32.4699 115.28 32.0991 115.532 31.8467C115.8 31.5944 116.171 31.4678 116.645 31.4678ZM128.471 34.876C129.607 34.876 130.538 35.0494 131.264 35.3965C132.005 35.7435 132.557 36.2718 132.92 36.9814C133.283 37.6756 133.464 38.5754 133.464 39.6797V45.3594C133.464 45.8482 133.346 46.227 133.109 46.4951C132.873 46.7475 132.533 46.873 132.092 46.873C131.65 46.873 131.303 46.7474 131.051 46.4951C130.814 46.227 130.695 45.8482 130.695 45.3594V44.8584C130.576 45.1528 130.42 45.4229 130.223 45.667C129.907 46.0614 129.505 46.369 129.016 46.5898C128.527 46.8107 127.966 46.9209 127.335 46.9209C126.499 46.9209 125.749 46.7627 125.087 46.4473C124.44 46.116 123.927 45.6741 123.549 45.1221C123.186 44.57 123.005 43.9469 123.005 43.2529C123.005 42.4011 123.225 41.7303 123.667 41.2412C124.109 40.7365 124.827 40.3742 125.82 40.1533C126.814 39.9325 128.148 39.8213 129.82 39.8213H130.648V39.3242C130.648 38.5358 130.475 37.9681 130.128 37.6211C129.781 37.2741 129.197 37.1007 128.377 37.1006C127.919 37.1006 127.422 37.1552 126.886 37.2656C126.365 37.376 125.813 37.5658 125.229 37.834C124.93 37.9759 124.661 38.0152 124.425 37.9521C124.204 37.889 124.031 37.7626 123.904 37.5732C123.778 37.3682 123.715 37.1477 123.715 36.9111C123.715 36.6745 123.778 36.4455 123.904 36.2246C124.031 35.988 124.243 35.8145 124.543 35.7041C125.269 35.4044 125.963 35.1916 126.625 35.0654C127.303 34.9393 127.919 34.876 128.471 34.876ZM152.51 31.4678C152.983 31.4678 153.346 31.5943 153.599 31.8467C153.851 32.0991 153.978 32.47 153.978 32.959V35.1123H156.485C156.864 35.1123 157.156 35.2072 157.361 35.3965C157.566 35.5858 157.669 35.8619 157.669 36.2246C157.669 36.5716 157.566 36.8477 157.361 37.0527C157.156 37.242 156.864 37.3369 156.485 37.3369H153.978V42.2119C153.978 42.9687 154.143 43.5365 154.474 43.915C154.805 44.2936 155.342 44.4834 156.083 44.4834C156.351 44.4834 156.588 44.4594 156.793 44.4121C156.998 44.3648 157.18 44.3332 157.338 44.3174C157.527 44.3018 157.684 44.3651 157.811 44.5068C157.937 44.633 158 44.9014 158 45.3115C158 45.6269 157.944 45.9107 157.834 46.1631C157.739 46.3997 157.558 46.5655 157.29 46.6602C157.085 46.7233 156.817 46.7788 156.485 46.8262C156.154 46.8892 155.863 46.9209 155.61 46.9209C154.585 46.9209 153.724 46.7475 153.03 46.4004C152.352 46.0533 151.847 45.5483 151.516 44.8857C151.184 44.2074 151.02 43.3708 151.02 42.377V37.3369H149.788C149.41 37.3368 149.118 37.242 148.913 37.0527C148.708 36.8476 148.605 36.5717 148.605 36.2246C148.605 35.8618 148.708 35.5858 148.913 35.3965C149.118 35.2073 149.41 35.1124 149.788 35.1123H151.02V32.959C151.02 32.47 151.145 32.0991 151.397 31.8467C151.666 31.5943 152.037 31.4678 152.51 31.4678ZM63.7275 29.8115C64.0902 29.8116 64.4134 29.9142 64.6973 30.1191C64.997 30.3085 65.25 30.6323 65.4551 31.0898L71.7256 44.9326C71.8991 45.2954 71.9623 45.6271 71.915 45.9268C71.8677 46.2265 71.7335 46.4632 71.5127 46.6367C71.2918 46.7945 70.9996 46.873 70.6367 46.873C70.1952 46.873 69.848 46.7705 69.5957 46.5654C69.3592 46.3446 69.1462 46.0136 68.957 45.5723L67.7754 42.8271H59.6377L58.4736 45.5723C58.2687 46.0294 58.0557 46.3604 57.835 46.5654C57.6142 46.7705 57.2987 46.873 56.8887 46.873C56.5102 46.873 56.2024 46.7867 55.9658 46.6133C55.745 46.4397 55.6108 46.2107 55.5635 45.9268C55.5162 45.627 55.5708 45.2954 55.7285 44.9326L61.9766 31.0898C62.1817 30.6323 62.426 30.3085 62.71 30.1191C63.0096 29.9142 63.349 29.8115 63.7275 29.8115ZM143.211 34.876C144.142 34.876 144.906 35.0495 145.506 35.3965C146.105 35.7435 146.556 36.2717 146.855 36.9814C147.155 37.6755 147.305 38.5593 147.305 39.6318V45.3594C147.305 45.8482 147.178 46.227 146.926 46.4951C146.673 46.7473 146.311 46.873 145.838 46.873C145.365 46.873 144.994 46.7474 144.726 46.4951C144.473 46.227 144.347 45.8482 144.347 45.3594V39.7744C144.347 38.8754 144.173 38.2207 143.826 37.8105C143.495 37.4004 142.974 37.1954 142.265 37.1953C141.397 37.1953 140.702 37.4713 140.182 38.0234C139.677 38.5598 139.425 39.2777 139.425 40.1768V45.3594C139.425 46.3688 138.927 46.873 137.934 46.873C137.461 46.873 137.098 46.7473 136.846 46.4951C136.593 46.227 136.467 45.8482 136.467 45.3594V36.4141C136.467 35.925 136.593 35.5542 136.846 35.3018C137.098 35.0495 137.453 34.9229 137.91 34.9229C138.368 34.9229 138.722 35.0495 138.975 35.3018C139.227 35.5542 139.354 35.925 139.354 36.4141V36.9062C139.689 36.3264 140.137 35.8696 140.702 35.5381C141.444 35.0964 142.28 34.876 143.211 34.876ZM98.4395 34.9473C98.9127 34.9473 99.2759 35.0891 99.5283 35.373C99.7964 35.6412 99.9306 36.0353 99.9307 36.5557V45.2402C99.9307 45.7451 99.8042 46.1399 99.5518 46.4238C99.2993 46.7077 98.9284 46.8496 98.4395 46.8496C97.9664 46.8495 97.6039 46.7076 97.3516 46.4238C97.0991 46.1399 96.9727 45.7451 96.9727 45.2402V36.5557C96.9727 36.0352 97.0992 35.6412 97.3516 35.373C97.6039 35.0892 97.9664 34.9473 98.4395 34.9473ZM129.844 41.5254C128.866 41.5254 128.085 41.5723 127.501 41.667C126.918 41.7616 126.5 41.9276 126.247 42.1641C126.01 42.3849 125.892 42.7012 125.892 43.1113C125.892 43.6317 126.074 44.0575 126.437 44.3887C126.799 44.7198 127.304 44.8857 127.95 44.8857C128.471 44.8857 128.929 44.7669 129.323 44.5303C129.733 44.2779 130.056 43.9385 130.293 43.5127C130.53 43.0868 130.648 42.598 130.648 42.0459V41.5254H129.844ZM60.6855 40.4131H66.7432L63.7275 33.29H63.6797L60.6855 40.4131ZM6.38965 22.7324C9.91819 22.7326 12.7783 25.6352 12.7783 29.2158C12.7783 32.7964 9.91816 35.699 6.38965 35.6992C2.86097 35.6992 4.57133e-05 32.7965 0 29.2158C0 25.6351 2.86094 22.7324 6.38965 22.7324ZM98.4395 29.6221C99.0073 29.6221 99.4415 29.7563 99.7412 30.0244C100.041 30.2926 100.191 30.6797 100.191 31.1846C100.191 31.6735 100.041 32.0599 99.7412 32.3438C99.4415 32.6119 99.0073 32.7461 98.4395 32.7461C97.8876 32.746 97.4541 32.6118 97.1387 32.3438C96.839 32.0599 96.6886 31.6735 96.6885 31.1846C96.6885 30.6797 96.8389 30.2926 97.1387 30.0244C97.4541 29.7565 97.8877 29.6221 98.4395 29.6221ZM62.8281 8.76465C63.7745 8.76466 64.6736 8.88258 65.5254 9.11914C66.3773 9.35577 67.1429 9.70268 67.8213 10.1602C68.0737 10.3337 68.2395 10.5474 68.3184 10.7998C68.4129 11.0521 68.436 11.3044 68.3887 11.5566C68.3413 11.7933 68.2312 11.9983 68.0576 12.1719C67.8842 12.3453 67.6635 12.4479 67.3955 12.4795C67.1431 12.511 66.8508 12.4325 66.5195 12.2432C65.9359 11.9119 65.3445 11.6752 64.7451 11.5332C64.1457 11.3912 63.4987 11.3203 62.8047 11.3203C62.079 11.3203 61.4552 11.4228 60.9346 11.6279C60.4143 11.8329 60.0124 12.1246 59.7285 12.5029C59.4603 12.8658 59.3262 13.2999 59.3262 13.8047C59.3262 14.3726 59.5149 14.8307 59.8936 15.1777C60.2722 15.509 60.9192 15.7687 61.834 15.958L64.4131 16.5029C65.9749 16.8342 67.1353 17.3545 67.8926 18.0645C68.6654 18.7743 69.0518 19.7212 69.0518 20.9043C69.0517 21.6614 68.8936 22.3477 68.5781 22.9629C68.2784 23.5781 67.8366 24.1062 67.2529 24.5479C66.685 24.9896 65.9989 25.3288 65.1943 25.5654C64.3898 25.8021 63.4823 25.9209 62.4727 25.9209C61.7786 25.9209 61.0846 25.8653 60.3906 25.7549C59.6966 25.6602 59.0419 25.5107 58.4268 25.3057C57.8116 25.0849 57.2595 24.8164 56.7705 24.501C56.4865 24.3117 56.2891 24.0826 56.1787 23.8145C56.0684 23.5464 56.0291 23.2865 56.0605 23.0342C56.1079 22.766 56.2104 22.537 56.3682 22.3477C56.5417 22.1426 56.7545 22.0161 57.0068 21.9688C57.2592 21.9215 57.5353 21.9924 57.835 22.1816C58.5291 22.5918 59.2631 22.8917 60.0361 23.0811C60.8089 23.2703 61.6211 23.3652 62.4727 23.3652C63.7188 23.3652 64.6264 23.1601 65.1943 22.75C65.7622 22.3241 66.0458 21.7797 66.0459 21.1172C66.0459 20.565 65.8408 20.131 65.4307 19.8154C65.0362 19.5 64.35 19.2392 63.3721 19.0342L60.7695 18.4902C59.271 18.1748 58.1507 17.6466 57.4092 16.9053C56.6835 16.148 56.3203 15.1534 56.3203 13.9229C56.3204 13.15 56.4785 12.4483 56.7939 11.8174C57.1095 11.1863 57.5512 10.6421 58.1191 10.1846C58.7029 9.72707 59.3889 9.37922 60.1777 9.14258C60.9823 8.8902 61.8659 8.76465 62.8281 8.76465ZM97.0654 13.876C98.2011 13.876 99.1318 14.0495 99.8574 14.3965C100.599 14.7435 101.152 15.2716 101.515 15.9814C101.877 16.6756 102.059 17.5754 102.059 18.6797V24.3594C102.059 24.8482 101.94 25.227 101.703 25.4951C101.467 25.7472 101.128 25.873 100.687 25.873C100.245 25.873 99.8969 25.7475 99.6445 25.4951C99.408 25.227 99.2901 24.8482 99.29 24.3594V23.8574C99.1711 24.1522 99.0138 24.4226 98.8164 24.667C98.5009 25.0612 98.0983 25.369 97.6094 25.5898C97.1204 25.8106 96.5605 25.9209 95.9297 25.9209C95.0936 25.9209 94.3442 25.7628 93.6816 25.4473C93.0348 25.116 92.5222 24.6742 92.1436 24.1221C91.7808 23.5699 91.5986 22.947 91.5986 22.2529C91.5986 21.401 91.82 20.7303 92.2617 20.2412C92.7034 19.7365 93.4213 19.3742 94.415 19.1533C95.4089 18.9325 96.7419 18.8213 98.4141 18.8213H99.2422V18.3242C99.2421 17.5356 99.0687 16.9681 98.7217 16.6211C98.3746 16.274 97.7911 16.1006 96.9707 16.1006C96.5132 16.1006 96.0158 16.1552 95.4795 16.2656C94.959 16.3761 94.4068 16.5659 93.8232 16.834C93.5236 16.9759 93.2551 17.0152 93.0186 16.9521C92.7978 16.889 92.6242 16.7625 92.498 16.5732C92.372 16.3683 92.3086 16.1476 92.3086 15.9111C92.3086 15.6745 92.3719 15.4454 92.498 15.2246C92.6243 14.988 92.838 14.8145 93.1377 14.7041C93.8633 14.4044 94.5573 14.1916 95.2197 14.0654C95.8981 13.9392 96.5133 13.876 97.0654 13.876ZM117.199 10.4678C117.672 10.4679 118.035 10.5944 118.287 10.8467C118.54 11.0991 118.666 11.4699 118.666 11.959V14.1123H121.174C121.552 14.1123 121.845 14.2072 122.05 14.3965C122.255 14.5858 122.357 14.8618 122.357 15.2246C122.357 15.5717 122.255 15.8476 122.05 16.0527C121.845 16.242 121.552 16.3369 121.174 16.3369H118.666V21.2119C118.666 21.9689 118.832 22.5365 119.163 22.915C119.494 23.2937 120.031 23.4834 120.772 23.4834C121.04 23.4834 121.277 23.4594 121.482 23.4121C121.687 23.3648 121.869 23.3331 122.026 23.3174C122.215 23.3017 122.373 23.3652 122.499 23.5068C122.625 23.633 122.688 23.9014 122.688 24.3115C122.688 24.6268 122.634 24.9108 122.523 25.1631C122.429 25.3997 122.247 25.5655 121.979 25.6602C121.773 25.7232 121.505 25.7789 121.174 25.8262C120.843 25.8892 120.551 25.9209 120.299 25.9209C119.274 25.9209 118.414 25.7473 117.72 25.4004C117.041 25.0533 116.536 24.5483 116.205 23.8857C115.874 23.2074 115.708 22.3708 115.708 21.377V16.3369H114.478C114.099 16.3369 113.807 16.242 113.602 16.0527C113.397 15.8477 113.294 15.5716 113.294 15.2246C113.294 14.8619 113.397 14.5858 113.602 14.3965C113.807 14.2072 114.099 14.1123 114.478 14.1123H115.708V11.959C115.708 11.4699 115.835 11.0991 116.087 10.8467C116.355 10.5944 116.726 10.4678 117.199 10.4678ZM85.1631 13.876C86.0465 13.876 86.7729 14.0494 87.3408 14.3965C87.9244 14.7435 88.3586 15.2717 88.6426 15.9814C88.9265 16.6755 89.0683 17.5593 89.0684 18.6318V24.3594C89.0683 24.8482 88.9341 25.227 88.666 25.4951C88.4136 25.7475 88.0504 25.873 87.5771 25.873C87.1039 25.873 86.7407 25.7475 86.4883 25.4951C86.236 25.227 86.1104 24.8482 86.1104 24.3594V18.751C86.1104 17.8676 85.9599 17.2207 85.6602 16.8105C85.3762 16.4004 84.8875 16.1953 84.1934 16.1953C83.4203 16.1953 82.8128 16.4713 82.3711 17.0234C81.9295 17.5598 81.709 18.3093 81.709 19.2715V24.3594C81.7089 24.8482 81.5824 25.227 81.3301 25.4951C81.0777 25.7475 80.7144 25.873 80.2412 25.873C79.768 25.873 79.3971 25.7475 79.1289 25.4951C78.8766 25.227 78.751 24.8482 78.751 24.3594V18.751C78.751 17.8676 78.6004 17.2207 78.3008 16.8105C78.0168 16.4004 77.5358 16.1953 76.8574 16.1953C76.0844 16.1953 75.4769 16.4713 75.0352 17.0234C74.5936 17.5598 74.373 18.3093 74.373 19.2715V24.3594C74.3729 25.3688 73.8756 25.873 72.8818 25.873C72.4086 25.873 72.0454 25.7475 71.793 25.4951C71.5407 25.227 71.4151 24.8482 71.415 24.3594V15.4141C71.415 14.9251 71.5407 14.5542 71.793 14.3018C72.0454 14.0493 72.4009 13.9229 72.8584 13.9229C73.3158 13.9229 73.6705 14.0495 73.9229 14.3018C74.1753 14.5542 74.3018 14.925 74.3018 15.4141V15.8877C74.6045 15.3508 75.0067 14.9092 75.5088 14.5625C76.1714 14.105 76.96 13.876 77.875 13.876C78.8058 13.876 79.5714 14.0964 80.1709 14.5381C80.6704 14.9062 81.0405 15.4401 81.2881 16.1367C81.6073 15.5065 82.0615 14.9966 82.6553 14.6094C83.3808 14.1204 84.2168 13.8761 85.1631 13.876ZM111.592 13.876C111.923 13.8444 112.184 13.9308 112.373 14.1357C112.578 14.325 112.697 14.6251 112.729 15.0352C112.76 15.4296 112.665 15.7534 112.444 16.0059C112.239 16.2424 111.924 16.3843 111.498 16.4316L110.977 16.4785C110.014 16.5732 109.289 16.8732 108.8 17.3779C108.311 17.867 108.066 18.5617 108.066 19.4609V24.3594C108.066 24.8482 107.94 25.227 107.688 25.4951C107.435 25.7474 107.064 25.873 106.575 25.873C106.086 25.873 105.708 25.7474 105.439 25.4951C105.187 25.227 105.061 24.8482 105.061 24.3594V15.4141C105.061 14.925 105.187 14.5542 105.439 14.3018C105.692 14.0493 106.047 13.9229 106.505 13.9229C106.962 13.9229 107.317 14.0494 107.569 14.3018C107.822 14.5542 107.948 14.925 107.948 15.4141V16.166C108.193 15.5759 108.547 15.1034 109.013 14.751C109.659 14.262 110.519 13.9707 111.592 13.876ZM98.4375 20.5254C97.4599 20.5254 96.6793 20.5724 96.0957 20.667C95.512 20.7616 95.0932 20.9274 94.8408 21.1641C94.6042 21.3849 94.4863 21.7012 94.4863 22.1113C94.4864 22.6317 94.6676 23.0575 95.0303 23.3887C95.3931 23.72 95.8981 23.8857 96.5449 23.8857C97.0655 23.8857 97.5226 23.7669 97.917 23.5303C98.3272 23.2779 98.6511 22.9386 98.8877 22.5127C99.1242 22.0868 99.2422 21.5979 99.2422 21.0459V20.5254H98.4375Z" fill="url(#paint0_linear_2040_190)"/>
<defs>
<linearGradient id="paint0_linear_2040_190" x1="-30.913" y1="63.5034" x2="198.662" y2="12.7136" gradientUnits="userSpaceOnUse">
<stop stop-color="#6C63FF"/>
<stop offset="1" stop-color="#413B99"/>
</linearGradient>
</defs>
</svg>
