<svg width="159" height="57" viewBox="0 0 159 57" fill="none" xmlns="http://www.w3.org/2000/svg">
<path d="M20.5752 0C25.4703 0 29.4385 3.95702 29.4385 8.83789C29.4384 12.4495 27.2647 15.552 24.1514 16.9229L25.7686 20.8369C26.6714 20.5278 27.6394 20.3584 28.6475 20.3584C33.5424 20.3584 37.5106 24.3146 37.5107 29.1953C37.5107 32.849 35.2868 35.9842 32.1152 37.3301L33.6719 42.459C34.5772 42.0499 35.582 41.8203 36.6406 41.8203C40.6177 41.8204 43.8416 45.0355 43.8418 49.001C43.8418 52.9666 40.6178 56.1815 36.6406 56.1816C32.6634 56.1816 29.4385 52.9667 29.4385 49.001C29.4386 46.461 30.7627 44.2306 32.7588 42.9541L31.126 37.6797C30.3392 37.9078 29.5081 38.0332 28.6475 38.0332C27.2012 38.0332 25.8369 37.6858 24.6309 37.0732L18.5801 41.0225L18.4805 40.9697C20.1607 42.5779 21.2089 44.8381 21.209 47.3438C21.209 52.2245 17.2406 56.1815 12.3457 56.1816C7.45062 56.1816 3.48242 52.2246 3.48242 47.3438C3.48268 42.4631 7.45078 38.5068 12.3457 38.5068C14.3855 38.5069 16.2629 39.1958 17.7607 40.3506L23.626 36.4766C21.3061 34.8828 19.7842 32.2168 19.7842 29.1953C19.7843 25.6576 21.8695 22.6062 24.8809 21.1943L23.2178 17.2754C22.3832 17.5349 21.4955 17.6748 20.5752 17.6748C15.6804 17.6746 11.7121 13.7185 11.7119 8.83789C11.7119 3.95716 15.6803 0.000215838 20.5752 0ZM78.709 35.1797C79.4054 35.1797 80.0548 35.2587 80.6562 35.417C81.2735 35.5594 81.8668 35.789 82.4365 36.1055C82.6738 36.232 82.832 36.3979 82.9111 36.6035C83.0061 36.8093 83.0299 37.0235 82.9824 37.2451C82.9349 37.4506 82.8405 37.6405 82.6982 37.8145C82.5559 37.9726 82.3737 38.0755 82.1523 38.123C81.9466 38.1547 81.7085 38.1071 81.4395 37.9805C80.949 37.7274 80.4744 37.5454 80.0156 37.4346C79.5725 37.3238 79.1448 37.2686 78.7334 37.2686C77.9579 37.2686 77.3799 37.4028 77 37.6719C76.636 37.9409 76.4541 38.2971 76.4541 38.7402C76.4541 39.0725 76.5647 39.3497 76.7861 39.5713C77.0077 39.7929 77.3486 39.9433 77.8076 40.0225L80.1816 40.4736C81.2103 40.6636 81.9856 41.0121 82.5078 41.5186C83.0458 42.025 83.3154 42.7051 83.3154 43.5596C83.3154 44.715 82.8641 45.6253 81.9619 46.29C81.0598 46.9389 79.857 47.2636 78.3535 47.2637C77.6731 47.2637 76.9529 47.1922 76.1934 47.0498C75.4337 46.9074 74.7528 46.6617 74.1514 46.3135C73.8981 46.1552 73.7163 45.9733 73.6055 45.7676C73.5105 45.5461 73.4705 45.3326 73.4863 45.127C73.518 44.9054 73.597 44.7149 73.7236 44.5566C73.8661 44.3984 74.0404 44.2955 74.2461 44.248C74.4676 44.2006 74.7049 44.2407 74.958 44.3672C75.5911 44.6679 76.1853 44.8812 76.7393 45.0078C77.2931 45.1186 77.8389 45.1738 78.377 45.1738C79.1367 45.1738 79.6985 45.0472 80.0625 44.7939C80.4422 44.5249 80.6327 44.1772 80.6328 43.75C80.6328 43.3861 80.506 43.1089 80.2529 42.9189C80.0155 42.7132 79.6508 42.5627 79.1602 42.4678L76.7861 42.0166C75.805 41.8267 75.0535 41.4705 74.5312 40.9482C74.0248 40.4101 73.7715 39.7217 73.7715 38.8828C73.7715 38.1231 73.9772 37.4661 74.3887 36.9121C74.816 36.3583 75.4017 35.9306 76.1455 35.6299C76.8892 35.3293 77.7438 35.1797 78.709 35.1797ZM90.3018 35.1797C90.998 35.1797 91.6467 35.2588 92.248 35.417C92.8653 35.5594 93.4595 35.7889 94.0293 36.1055C94.2665 36.232 94.4248 36.3979 94.5039 36.6035C94.5989 36.8093 94.6227 37.0235 94.5752 37.2451C94.5277 37.4507 94.4324 37.6405 94.29 37.8145C94.1476 37.9727 93.9657 38.0756 93.7441 38.123C93.5384 38.1547 93.3012 38.107 93.0322 37.9805C92.5416 37.7272 92.0664 37.5454 91.6074 37.4346C91.1643 37.3238 90.7367 37.2686 90.3252 37.2686C89.55 37.2686 88.9726 37.403 88.5928 37.6719C88.2288 37.9409 88.0459 38.2971 88.0459 38.7402C88.0459 39.0726 88.1573 39.3497 88.3789 39.5713C88.6005 39.7928 88.9405 39.9433 89.3994 40.0225L91.7734 40.4736C92.8022 40.6636 93.5783 41.0121 94.1006 41.5186C94.6384 42.0249 94.9072 42.7052 94.9072 43.5596C94.9072 44.7148 94.4567 45.6253 93.5547 46.29C92.6525 46.939 91.4489 47.2637 89.9453 47.2637C89.2648 47.2636 88.5448 47.1922 87.7852 47.0498C87.0255 46.9074 86.3446 46.6617 85.7432 46.3135C85.4901 46.1553 85.308 45.9732 85.1973 45.7676C85.1024 45.5461 85.0633 45.3326 85.0791 45.127C85.1108 44.9054 85.1898 44.7149 85.3164 44.5566C85.4588 44.3985 85.6333 44.2955 85.8389 44.248C86.0603 44.2007 86.2977 44.2407 86.5508 44.3672C87.1837 44.6678 87.7772 44.8812 88.3311 45.0078C88.885 45.1186 89.4316 45.1738 89.9697 45.1738C90.7293 45.1738 91.2913 45.0471 91.6553 44.7939C92.0348 44.525 92.2245 44.1771 92.2246 43.75C92.2246 43.386 92.098 43.1089 91.8447 42.9189C91.6073 42.7132 91.2435 42.5627 90.7529 42.4678L88.3789 42.0166C87.3976 41.8267 86.6454 41.4705 86.123 40.9482C85.6167 40.4101 85.3633 39.7216 85.3633 38.8828C85.3633 38.1231 85.569 37.466 85.9805 36.9121C86.4078 36.3582 86.9935 35.9306 87.7373 35.6299C88.4812 35.3292 89.3363 35.1797 90.3018 35.1797ZM107.945 35.1797C108.642 35.1797 109.29 35.2588 109.892 35.417C110.509 35.5594 111.103 35.7889 111.673 36.1055C111.91 36.232 112.068 36.3979 112.147 36.6035C112.242 36.8093 112.266 37.0235 112.219 37.2451C112.171 37.4507 112.076 37.6405 111.934 37.8145C111.791 37.9727 111.609 38.0756 111.388 38.123C111.182 38.1547 110.945 38.107 110.676 37.9805C110.185 37.7272 109.71 37.5454 109.251 37.4346C108.808 37.3238 108.38 37.2686 107.969 37.2686C107.194 37.2686 106.616 37.403 106.236 37.6719C105.872 37.9409 105.69 38.2971 105.689 38.7402C105.689 39.0726 105.801 39.3497 106.022 39.5713C106.244 39.7928 106.584 39.9433 107.043 40.0225L109.417 40.4736C110.446 40.6636 111.222 41.0121 111.744 41.5186C112.282 42.0249 112.551 42.7052 112.551 43.5596C112.551 44.7148 112.1 45.6253 111.198 46.29C110.296 46.939 109.092 47.2637 107.589 47.2637C106.908 47.2637 106.188 47.1922 105.429 47.0498C104.669 46.9074 103.988 46.6617 103.387 46.3135C103.134 46.1553 102.952 45.9732 102.841 45.7676C102.746 45.5461 102.707 45.3326 102.723 45.127C102.754 44.9054 102.833 44.7149 102.96 44.5566C103.102 44.3986 103.277 44.2955 103.482 44.248C103.704 44.2007 103.941 44.2407 104.194 44.3672C104.827 44.6678 105.421 44.8812 105.975 45.0078C106.529 45.1186 107.075 45.1738 107.613 45.1738C108.373 45.1738 108.935 45.0471 109.299 44.7939C109.678 44.525 109.868 44.1771 109.868 43.75C109.868 43.386 109.742 43.1089 109.488 42.9189C109.251 42.7132 108.887 42.5627 108.396 42.4678L106.022 42.0166C105.041 41.8267 104.289 41.4705 103.767 40.9482C103.26 40.4101 103.007 39.7216 103.007 38.8828C103.007 38.1231 103.213 37.4661 103.624 36.9121C104.051 36.3582 104.637 35.9306 105.381 35.6299C106.125 35.3292 106.98 35.1797 107.945 35.1797ZM117.023 31.7607C117.498 31.7607 117.863 31.8874 118.116 32.1406C118.369 32.3938 118.496 32.7656 118.496 33.2559V35.417H121.013C121.392 35.4171 121.685 35.5115 121.891 35.7012C122.096 35.8911 122.199 36.1683 122.199 36.5322C122.199 36.8804 122.096 37.1575 121.891 37.3633C121.685 37.5531 121.392 37.6484 121.013 37.6484H118.496V42.5391C118.496 43.2986 118.662 43.8682 118.994 44.248C119.326 44.6279 119.865 44.8183 120.608 44.8184C120.877 44.8184 121.116 44.7946 121.321 44.7471C121.527 44.6996 121.709 44.6682 121.867 44.6523C122.057 44.6366 122.215 44.6994 122.342 44.8418C122.468 44.9684 122.531 45.2379 122.531 45.6494C122.531 45.9658 122.476 46.2508 122.365 46.5039C122.27 46.7412 122.088 46.907 121.819 47.002C121.614 47.0652 121.345 47.1215 121.013 47.1689C120.68 47.2323 120.387 47.2637 120.134 47.2637C119.105 47.2637 118.242 47.0894 117.546 46.7412C116.865 46.393 116.359 45.8864 116.026 45.2217C115.694 44.5411 115.528 43.7021 115.528 42.7051V37.6484H114.294C113.914 37.6484 113.621 37.5532 113.415 37.3633C113.209 37.1575 113.106 36.8804 113.106 36.5322C113.106 36.1683 113.209 35.8911 113.415 35.7012C113.621 35.5113 113.914 35.417 114.294 35.417H115.528V33.2559C115.528 32.7654 115.655 32.3938 115.908 32.1406C116.177 31.8875 116.549 31.7608 117.023 31.7607ZM128.89 35.1797C130.029 35.1797 130.963 35.3531 131.69 35.7012C132.434 36.0493 132.989 36.5799 133.353 37.292C133.717 37.9884 133.898 38.8911 133.898 39.999V45.6963C133.898 46.1868 133.78 46.5669 133.543 46.8359C133.306 47.0892 132.965 47.2158 132.521 47.2158C132.079 47.2158 131.731 47.089 131.478 46.8359C131.24 46.5669 131.121 46.1869 131.121 45.6963V45.1934C131.002 45.489 130.844 45.7598 130.646 46.0049C130.33 46.4005 129.926 46.7091 129.436 46.9307C128.945 47.1522 128.383 47.2636 127.75 47.2637C126.911 47.2637 126.159 47.1056 125.494 46.7891C124.845 46.4567 124.331 46.0129 123.951 45.459C123.587 44.9052 123.405 44.2802 123.405 43.584C123.405 42.7293 123.627 42.0561 124.07 41.5654C124.514 41.0591 125.234 40.6952 126.23 40.4736C127.228 40.2521 128.565 40.1416 130.242 40.1416H131.073V39.6426C131.073 38.8512 130.899 38.2818 130.551 37.9336C130.203 37.5854 129.617 37.4111 128.794 37.4111C128.335 37.4112 127.837 37.4664 127.299 37.5771C126.777 37.6879 126.222 37.8774 125.637 38.1465C125.336 38.2888 125.067 38.3288 124.83 38.2656C124.609 38.2023 124.434 38.0756 124.308 37.8857C124.181 37.68 124.117 37.4581 124.117 37.2207C124.117 36.9834 124.181 36.7537 124.308 36.5322C124.434 36.295 124.648 36.1205 124.948 36.0098C125.676 35.7091 126.373 35.4958 127.037 35.3691C127.718 35.2425 128.336 35.1797 128.89 35.1797ZM153.007 31.7607C153.481 31.7608 153.845 31.8875 154.099 32.1406C154.352 32.3938 154.478 32.7655 154.479 33.2559V35.417H156.995C157.375 35.417 157.667 35.5115 157.873 35.7012C158.079 35.8911 158.182 36.1683 158.182 36.5322C158.182 36.8804 158.079 37.1575 157.873 37.3633C157.667 37.5531 157.375 37.6484 156.995 37.6484H154.479V42.5391C154.479 43.2985 154.644 43.8682 154.977 44.248C155.309 44.6278 155.847 44.8183 156.591 44.8184C156.86 44.8184 157.098 44.7946 157.304 44.7471C157.509 44.6996 157.691 44.6682 157.85 44.6523C158.039 44.6365 158.198 44.6994 158.324 44.8418C158.451 44.9684 158.515 45.2379 158.515 45.6494C158.515 45.9658 158.458 46.2508 158.348 46.5039C158.253 46.7412 158.071 46.907 157.802 47.002C157.596 47.0652 157.327 47.1215 156.995 47.1689C156.663 47.2323 156.369 47.2637 156.116 47.2637C155.088 47.2636 154.225 47.0894 153.528 46.7412C152.848 46.393 152.341 45.8863 152.009 45.2217C151.676 44.5411 151.511 43.7021 151.511 42.7051V37.6484H150.276C149.897 37.6484 149.603 37.5532 149.397 37.3633C149.192 37.1575 149.089 36.8803 149.089 36.5322C149.089 36.1683 149.192 35.8911 149.397 35.7012C149.603 35.5113 149.897 35.417 150.276 35.417H151.511V33.2559C151.511 32.7654 151.637 32.3938 151.891 32.1406C152.16 31.8874 152.532 31.7607 153.007 31.7607ZM63.9346 30.0986C64.2986 30.0986 64.6233 30.2015 64.9082 30.4072C65.2089 30.5972 65.4622 30.9219 65.668 31.3809L71.959 45.2695C72.133 45.6335 72.1969 45.9659 72.1494 46.2666C72.1019 46.5672 71.9666 46.8045 71.7451 46.9785C71.5236 47.1367 71.231 47.2158 70.8672 47.2158C70.424 47.2158 70.0755 47.113 69.8223 46.9072C69.5849 46.6856 69.3715 46.3532 69.1816 45.9102L67.9961 43.1562H59.8311L58.6641 45.9102C58.4584 46.369 58.245 46.7015 58.0234 46.9072C57.8019 47.113 57.4848 47.2158 57.0732 47.2158C56.6935 47.2158 56.3848 47.1291 56.1475 46.9551C55.926 46.781 55.7917 46.5514 55.7441 46.2666C55.6967 45.966 55.752 45.6334 55.9102 45.2695L62.1777 31.3809C62.3835 30.9219 62.6292 30.5972 62.9141 30.4072C63.2147 30.2016 63.5548 30.0987 63.9346 30.0986ZM143.677 35.1797C144.61 35.1797 145.378 35.3532 145.979 35.7012C146.581 36.0493 147.032 36.5799 147.333 37.292C147.634 37.9884 147.784 38.8749 147.784 39.9512V45.6963C147.784 46.1869 147.658 46.5669 147.404 46.8359C147.151 47.0891 146.787 47.2158 146.312 47.2158C145.838 47.2158 145.465 47.0892 145.196 46.8359C144.943 46.5669 144.816 46.1868 144.816 45.6963V40.0938C144.816 39.1916 144.642 38.5346 144.294 38.123C143.962 37.7117 143.44 37.5059 142.728 37.5059C141.857 37.5059 141.161 37.7831 140.639 38.3369C140.132 38.875 139.879 39.595 139.879 40.4971V45.6963C139.879 46.7092 139.38 47.2158 138.383 47.2158C137.908 47.2158 137.544 47.0891 137.291 46.8359C137.038 46.5669 136.911 46.1869 136.911 45.6963V36.7227C136.911 36.232 137.038 35.8597 137.291 35.6064C137.544 35.3534 137.901 35.2266 138.359 35.2266C138.818 35.2266 139.175 35.3533 139.428 35.6064C139.681 35.8597 139.808 36.2321 139.808 36.7227V37.2158C140.144 36.6344 140.594 36.1762 141.16 35.8438C141.904 35.4006 142.743 35.1797 143.677 35.1797ZM98.7598 35.25C99.2346 35.25 99.5993 35.3928 99.8525 35.6777C100.122 35.9468 100.256 36.343 100.256 36.8652V45.5781C100.256 46.0844 100.129 46.4798 99.876 46.7646C99.6227 47.0495 99.2504 47.1924 98.7598 47.1924C98.2852 47.1923 97.9211 47.0494 97.668 46.7646C97.4149 46.4798 97.2881 46.0843 97.2881 45.5781V36.8652C97.2881 36.343 97.4148 35.9468 97.668 35.6777C97.9211 35.3929 98.2852 35.2501 98.7598 35.25ZM130.267 41.8506C129.285 41.8506 128.502 41.8982 127.916 41.9932C127.33 42.0881 126.91 42.2538 126.657 42.4912C126.42 42.7128 126.302 43.0299 126.302 43.4414C126.302 43.9636 126.484 44.3913 126.848 44.7236C127.212 45.0558 127.718 45.2217 128.367 45.2217C128.889 45.2217 129.348 45.1026 129.744 44.8652C130.156 44.612 130.48 44.272 130.718 43.8447C130.955 43.4175 131.073 42.9268 131.073 42.373V41.8506H130.267ZM60.8828 40.7344H66.9609L63.9346 33.5889H63.8877L60.8828 40.7344ZM6.41016 22.4092C9.95022 22.4092 12.8202 25.271 12.8203 28.8008C12.8203 32.3307 9.95032 35.1923 6.41016 35.1924C2.86996 35.1924 0 32.3307 0 28.8008C0.000160235 25.271 2.87006 22.4092 6.41016 22.4092ZM98.7598 29.9092C99.3296 29.9092 99.7657 30.0434 100.066 30.3125C100.367 30.5815 100.517 30.9693 100.517 31.4756C100.517 31.966 100.367 32.3538 100.066 32.6387C99.7657 32.9077 99.3296 33.043 98.7598 33.043C98.206 33.0429 97.7706 32.9077 97.4541 32.6387C97.1536 32.3538 97.0029 31.966 97.0029 31.4756C97.0029 30.9693 97.1536 30.5815 97.4541 30.3125C97.7706 30.0435 98.206 29.9093 98.7598 29.9092ZM63.0322 9.05078C63.9819 9.05078 64.8846 9.16982 65.7393 9.40723C66.5939 9.64464 67.3615 9.99319 68.042 10.4521C68.295 10.6262 68.4609 10.8397 68.54 11.0928C68.635 11.346 68.6588 11.5993 68.6113 11.8525C68.5639 12.0899 68.4534 12.2956 68.2793 12.4697C68.1052 12.6438 67.8833 12.7467 67.6143 12.7783C67.3611 12.8099 67.0685 12.7308 66.7363 12.541C66.1507 12.2086 65.5565 11.9715 64.9551 11.8291C64.3538 11.6867 63.705 11.6152 63.0088 11.6152C62.2807 11.6152 61.6551 11.7181 61.1328 11.9238C60.6107 12.1296 60.2077 12.423 59.9229 12.8027C59.6538 13.1667 59.5186 13.602 59.5186 14.1084C59.5186 14.678 59.7091 15.1372 60.0889 15.4854C60.4687 15.8176 61.1175 16.0787 62.0352 16.2686L64.623 16.8145C66.19 17.1468 67.3536 17.6696 68.1133 18.3818C68.8886 19.094 69.2764 20.0436 69.2764 21.2305C69.2763 21.9901 69.1183 22.6787 68.8018 23.2959C68.501 23.9132 68.0573 24.4436 67.4717 24.8867C66.902 25.3297 66.2133 25.6699 65.4062 25.9072C64.5992 26.1445 63.6894 26.2636 62.6768 26.2637C61.9804 26.2637 61.2833 26.2084 60.5869 26.0977C59.8906 26.0027 59.2334 25.8522 58.6162 25.6465C57.9991 25.4249 57.4456 25.1553 56.9551 24.8389C56.6702 24.6489 56.4721 24.4195 56.3613 24.1504C56.2506 23.8814 56.2106 23.6203 56.2422 23.3672C56.2896 23.0983 56.3927 22.8686 56.5508 22.6787C56.7249 22.473 56.9391 22.3463 57.1924 22.2988C57.4456 22.2514 57.7228 22.3228 58.0234 22.5127C58.7197 22.9241 59.456 23.2242 60.2314 23.4141C61.0069 23.604 61.8222 23.6992 62.6768 23.6992C63.9268 23.6992 64.8365 23.4934 65.4062 23.082C65.9759 22.6548 66.2616 22.1089 66.2617 21.4443C66.2617 20.8906 66.0557 20.4552 65.6445 20.1387C65.2488 19.8221 64.5594 19.5602 63.5781 19.3545L60.9668 18.8086C59.4633 18.492 58.3395 17.9616 57.5957 17.2178C56.8678 16.4581 56.5039 15.461 56.5039 14.2266C56.5039 13.4513 56.6621 12.7472 56.9785 12.1143C57.295 11.4813 57.7379 10.9345 58.3076 10.4756C58.8932 10.0166 59.5827 9.66808 60.374 9.43066C61.181 9.17757 62.0671 9.05081 63.0322 9.05078ZM97.3818 14.1797C98.521 14.1797 99.4547 14.3531 100.183 14.7012C100.926 15.0493 101.481 15.5798 101.845 16.292C102.209 16.9884 102.391 17.8911 102.391 18.999V24.6963C102.391 25.1869 102.272 25.5669 102.034 25.8359C101.797 26.0891 101.457 26.2158 101.014 26.2158C100.571 26.2158 100.222 26.0892 99.9688 25.8359C99.7315 25.5669 99.6133 25.1867 99.6133 24.6963V24.1934C99.494 24.4889 99.3366 24.7598 99.1387 25.0049C98.8222 25.4005 98.4182 25.7091 97.9277 25.9307C97.4372 26.1522 96.8751 26.2636 96.2422 26.2637C95.4034 26.2637 94.6511 26.1056 93.9863 25.7891C93.3374 25.4567 92.8232 25.0129 92.4434 24.459C92.0794 23.9051 91.8975 23.2802 91.8975 22.584C91.8975 21.7294 92.1184 21.0561 92.5615 20.5654C93.0047 20.059 93.7255 19.6952 94.7227 19.4736C95.7197 19.2521 97.0569 19.1416 98.7344 19.1416H99.5654V18.6426C99.5654 17.8512 99.3911 17.2818 99.043 16.9336C98.6948 16.5854 98.1092 16.4111 97.2861 16.4111C96.8273 16.4112 96.3289 16.4664 95.791 16.5771C95.2688 16.6879 94.7145 16.8775 94.1289 17.1465C93.8282 17.2889 93.5587 17.3289 93.3213 17.2656C93.1 17.2023 92.9263 17.0755 92.7998 16.8857C92.6732 16.68 92.6094 16.4581 92.6094 16.2207C92.6094 15.9834 92.6732 15.7537 92.7998 15.5322C92.9264 15.295 93.1399 15.1205 93.4404 15.0098C94.1683 14.7091 94.8647 14.4958 95.5293 14.3691C96.2099 14.2425 96.8279 14.1797 97.3818 14.1797ZM117.58 10.7607C118.055 10.7607 118.419 10.8875 118.672 11.1406C118.925 11.3938 119.052 11.7654 119.052 12.2559V14.417H121.568C121.948 14.417 122.242 14.5113 122.447 14.7012C122.653 14.8911 122.756 15.1683 122.756 15.5322C122.756 15.8804 122.653 16.1575 122.447 16.3633C122.242 16.5532 121.948 16.6484 121.568 16.6484H119.052V21.5391C119.052 22.2986 119.219 22.8682 119.551 23.248C119.883 23.6279 120.421 23.8183 121.165 23.8184C121.434 23.8184 121.671 23.7945 121.877 23.7471C122.083 23.6996 122.266 23.6682 122.424 23.6523C122.614 23.6366 122.772 23.6994 122.898 23.8418C123.025 23.9684 123.088 24.238 123.088 24.6494C123.088 24.9658 123.033 25.2508 122.922 25.5039C122.827 25.7412 122.645 25.907 122.376 26.002C122.17 26.0653 121.901 26.1215 121.568 26.1689C121.236 26.2322 120.944 26.2637 120.69 26.2637C119.662 26.2637 118.799 26.0894 118.103 25.7412C117.422 25.393 116.915 24.8864 116.583 24.2217C116.251 23.5411 116.085 22.7022 116.085 21.7051V16.6484H114.85C114.47 16.6484 114.177 16.5531 113.972 16.3633C113.766 16.1575 113.663 15.8804 113.663 15.5322C113.663 15.1683 113.766 14.8911 113.972 14.7012C114.177 14.5115 114.47 14.4171 114.85 14.417H116.085V12.2559C116.085 11.7654 116.212 11.3938 116.465 11.1406C116.734 10.8875 117.105 10.7608 117.58 10.7607ZM85.4404 14.1797C86.3267 14.1797 87.0552 14.353 87.625 14.7012C88.2106 15.0493 88.6458 15.5799 88.9307 16.292C89.2156 16.9884 89.3584 17.8749 89.3584 18.9512V24.6963C89.3584 25.1869 89.2232 25.5669 88.9541 25.8359C88.7009 26.0891 88.3371 26.2158 87.8623 26.2158C87.3875 26.2158 87.0237 26.0891 86.7705 25.8359C86.5173 25.5669 86.3906 25.1869 86.3906 24.6963V19.0703C86.3906 18.184 86.2402 17.5346 85.9395 17.123C85.6546 16.7116 85.164 16.5059 84.4678 16.5059C83.6923 16.5059 83.0828 16.783 82.6396 17.3369C82.1965 17.875 81.9747 18.6265 81.9746 19.5918V24.6963C81.9746 25.1869 81.8479 25.5669 81.5947 25.8359C81.3415 26.0891 80.9776 26.2158 80.5029 26.2158C80.0281 26.2158 79.6558 26.0892 79.3867 25.8359C79.1336 25.5669 79.0068 25.1869 79.0068 24.6963V19.0703C79.0068 18.184 78.8564 17.5346 78.5557 17.123C78.2708 16.7116 77.7879 16.5059 77.1074 16.5059C76.332 16.5059 75.7224 16.783 75.2793 17.3369C74.8363 17.875 74.6153 18.6266 74.6152 19.5918V24.6963C74.6152 25.7092 74.1163 26.2158 73.1191 26.2158C72.6444 26.2158 72.2806 26.0891 72.0273 25.8359C71.7741 25.5669 71.6475 25.1869 71.6475 24.6963V15.7227C71.6475 15.232 71.7741 14.8597 72.0273 14.6064C72.2806 14.3533 72.6368 14.2266 73.0957 14.2266C73.5546 14.2266 73.9109 14.3533 74.1641 14.6064C74.4172 14.8597 74.5439 15.2321 74.5439 15.7227V16.1973C74.8477 15.6588 75.2513 15.2159 75.7549 14.8682C76.4196 14.4092 77.211 14.1797 78.1289 14.1797C79.0625 14.1797 79.8303 14.4006 80.4316 14.8438C80.9327 15.213 81.3043 15.7484 81.5527 16.4473C81.8729 15.8152 82.3283 15.3035 82.9238 14.915C83.6518 14.4244 84.4909 14.1797 85.4404 14.1797ZM111.955 14.1797C112.287 14.148 112.549 14.2347 112.739 14.4404C112.945 14.6304 113.063 14.9314 113.095 15.3428C113.126 15.7384 113.032 16.0632 112.811 16.3164C112.605 16.5538 112.288 16.6957 111.86 16.7432L111.338 16.791C110.373 16.886 109.645 17.1869 109.154 17.6934C108.664 18.184 108.418 18.8801 108.418 19.7822V24.6963C108.418 25.1869 108.291 25.5669 108.038 25.8359C107.785 26.0892 107.413 26.2158 106.922 26.2158C106.432 26.2157 106.052 26.089 105.783 25.8359C105.53 25.5669 105.403 25.1869 105.403 24.6963V15.7227C105.403 15.232 105.53 14.8597 105.783 14.6064C106.036 14.3534 106.393 14.2266 106.852 14.2266C107.31 14.2266 107.667 14.3533 107.92 14.6064C108.173 14.8597 108.3 15.2321 108.3 15.7227V16.4766C108.546 15.8847 108.901 15.4111 109.368 15.0576C110.017 14.5672 110.879 14.2747 111.955 14.1797ZM98.7588 20.8506C97.7776 20.8506 96.9938 20.8982 96.4082 20.9932C95.8226 21.0881 95.4027 21.2538 95.1494 21.4912C94.912 21.7128 94.7939 22.0299 94.7939 22.4414C94.794 22.9636 94.9759 23.3913 95.3398 23.7236C95.7038 24.0558 96.2106 24.2217 96.8594 24.2217C97.3816 24.2216 97.8407 24.1026 98.2363 23.8652C98.6476 23.6121 98.9716 23.2719 99.209 22.8447C99.4464 22.4175 99.5654 21.9269 99.5654 21.373V20.8506H98.7588Z" fill="url(#paint0_linear_13_52)"/>
<defs>
<linearGradient id="paint0_linear_13_52" x1="-31.0137" y1="62.6024" x2="198.926" y2="10.8317" gradientUnits="userSpaceOnUse">
<stop stop-color="#6C63FF"/>
<stop offset="1" stop-color="#413B99"/>
</linearGradient>
</defs>
</svg>
