<svg width="88" height="88" viewBox="0 0 88 88" fill="none" xmlns="http://www.w3.org/2000/svg">
<path d="M75.1657 75.1666L80.6657 80.6666M54.999 66C54.999 68.9174 56.1579 71.7152 58.2208 73.7781C60.2837 75.841 63.0816 77 65.999 77C68.9164 77 71.7143 75.841 73.7772 73.7781C75.8401 71.7152 76.999 68.9174 76.999 66C76.999 63.0826 75.8401 60.2847 73.7772 58.2218C71.7143 56.1589 68.9164 55 65.999 55C63.0816 55 60.2837 56.1589 58.2208 58.2218C56.1579 60.2847 54.999 63.0826 54.999 66Z" stroke="#6C63FF" stroke-width="5.5" stroke-linecap="round" stroke-linejoin="round"/>
<path d="M73.3327 44V21.0796C73.3329 20.7902 73.276 20.5036 73.1653 20.2362C73.0546 19.9688 72.8921 19.7258 72.6873 19.5213L61.1447 7.97865C60.7325 7.56595 60.1733 7.33383 59.59 7.33331H16.866C16.2825 7.33331 15.723 7.5651 15.3104 7.97768C14.8978 8.39026 14.666 8.94984 14.666 9.53331V78.4666C14.666 79.0501 14.8978 79.6097 15.3104 80.0223C15.723 80.4349 16.2825 80.6666 16.866 80.6666H40.3327" stroke="#6C63FF" stroke-width="5.5" stroke-linecap="round" stroke-linejoin="round"/>
<path d="M58.666 7.33331V19.8C58.666 20.3835 58.8978 20.943 59.3104 21.3556C59.723 21.7682 60.2825 22 60.866 22H73.3327" stroke="#6C63FF" stroke-width="5.5" stroke-linecap="round" stroke-linejoin="round"/>
</svg>
