<svg width="88" height="88" viewBox="0 0 88 88" fill="none" xmlns="http://www.w3.org/2000/svg">
<path d="M44 52.2503C40.8235 52.2531 37.6958 51.4686 34.8965 49.967C32.0973 48.4654 29.7138 46.2935 27.9593 43.6455L32.5408 40.6013C33.7949 42.4925 35.4977 44.0439 37.4972 45.1172C39.4967 46.1904 41.7307 46.7521 44 46.7521C46.2693 46.7521 48.5033 46.1904 50.5028 45.1172C52.5023 44.0439 54.2051 42.4925 55.4593 40.6013L60.0408 43.6455C58.2862 46.2935 55.9027 48.4654 53.1035 49.967C50.3043 51.4686 47.1765 52.2531 44 52.2503ZM55 22.0003C53.9122 22.0003 52.8488 22.3229 51.9444 22.9272C51.0399 23.5315 50.3349 24.3905 49.9187 25.3955C49.5024 26.4005 49.3935 27.5064 49.6057 28.5733C49.8179 29.6402 50.3417 30.6202 51.1109 31.3894C51.8801 32.1586 52.8601 32.6824 53.927 32.8946C54.9939 33.1068 56.0998 32.9979 57.1048 32.5816C58.1098 32.1653 58.9687 31.4604 59.5731 30.5559C60.1774 29.6514 60.5 28.5881 60.5 27.5003C60.5074 26.776 60.3701 26.0575 60.0963 25.3869C59.8225 24.7162 59.4177 24.107 58.9055 23.5948C58.3933 23.0826 57.784 22.6778 57.1134 22.404C56.4428 22.1302 55.7243 21.9929 55 22.0003ZM33 22.0003C31.9122 22.0003 30.8488 22.3229 29.9444 22.9272C29.0399 23.5315 28.3349 24.3905 27.9187 25.3955C27.5024 26.4005 27.3935 27.5064 27.6057 28.5733C27.8179 29.6402 28.3417 30.6202 29.1109 31.3894C29.8801 32.1586 30.8601 32.6824 31.927 32.8946C32.9939 33.1068 34.0998 32.9979 35.1048 32.5816C36.1098 32.1653 36.9687 31.4604 37.5731 30.5559C38.1774 29.6514 38.5 28.5881 38.5 27.5003C38.5074 26.776 38.3701 26.0575 38.0963 25.3869C37.8225 24.7162 37.4177 24.107 36.9055 23.5948C36.3933 23.0826 35.784 22.6778 35.1134 22.404C34.4428 22.1302 33.7243 21.9929 33 22.0003Z" fill="#6C63FF"/>
<path d="M48.774 82.5L44 79.75L55 60.5H71.5C72.2226 60.5011 72.9383 60.3596 73.606 60.0835C74.2738 59.8075 74.8806 59.4024 75.3915 58.8915C75.9025 58.3806 76.3075 57.7738 76.5835 57.106C76.8596 56.4383 77.0011 55.7226 77 55V16.5C77.0011 15.7774 76.8596 15.0617 76.5835 14.394C76.3075 13.7262 75.9025 13.1194 75.3915 12.6085C74.8806 12.0976 74.2738 11.6925 73.606 11.4165C72.9383 11.1404 72.2226 10.9989 71.5 11H16.5C15.7774 10.9989 15.0617 11.1404 14.394 11.4165C13.7262 11.6925 13.1194 12.0976 12.6085 12.6085C12.0976 13.1194 11.6925 13.7262 11.4165 14.394C11.1404 15.0617 10.9989 15.7774 11 16.5V55C10.9989 55.7226 11.1404 56.4383 11.4165 57.106C11.6925 57.7738 12.0976 58.3806 12.6085 58.8915C13.1194 59.4024 13.7262 59.8075 14.394 60.0835C15.0617 60.3596 15.7774 60.5011 16.5 60.5H41.25V66H16.5C13.5826 66 10.7847 64.8411 8.72183 62.7782C6.65893 60.7153 5.5 57.9174 5.5 55V16.5C5.5 13.5826 6.65893 10.7847 8.72183 8.72183C10.7847 6.65893 13.5826 5.5 16.5 5.5H71.5C74.4174 5.5 77.2153 6.65893 79.2782 8.72183C81.3411 10.7847 82.5 13.5826 82.5 16.5V55C82.5 57.9174 81.3411 60.7153 79.2782 62.7782C77.2153 64.8411 74.4174 66 71.5 66H58.2038L48.774 82.5Z" fill="#6C63FF"/>
</svg>
