<svg width="93" height="25" viewBox="0 0 93 25" fill="none" xmlns="http://www.w3.org/2000/svg">
<path d="M92.461 1.64857C92.474 0.880571 91.89 0.382552 91.152 0.335552C86.656 -0.333448 81.988 0.361552 77.814 2.15455C73.867 3.71655 69.607 5.53057 65.287 4.48457C64.738 3.30457 64.154 1.89755 62.807 1.45555C61.97 1.10355 60.898 1.75556 60.958 2.70356C61.057 3.96056 62.224 4.71156 62.88 5.67656C59.156 10.9666 52.498 13.6136 46.149 13.4376C39.461 13.3386 33.296 10.4646 26.895 8.91157C23.39 8.04057 19.602 7.86456 16.17 9.15156C13.476 10.0526 11.168 11.8676 9.45197 14.1156C6.87798 13.2056 3.87097 12.3005 1.23597 13.4295C1.17597 13.6095 1.05997 13.9785 0.999977 14.1586C3.48798 14.6266 6.01497 14.9866 8.36997 15.9776C7.76497 18.0456 7.32797 20.4005 8.44297 22.3865C9.22397 23.8365 10.815 25.3086 12.587 24.8186C14.522 23.9946 15.191 21.4725 14.586 19.5885C14.067 17.6585 12.531 16.2896 11.115 14.9936C14.17 11.6346 18.876 10.0686 23.346 10.6176C30.845 11.5316 37.675 15.4615 45.277 15.8215C52.815 16.2725 60.936 13.0586 64.891 6.37056C70.048 7.50356 75.097 5.39655 79.928 3.86055C83.966 2.45155 88.273 2.28757 92.461 1.64857ZM12.974 20.2896C13.352 21.3536 12.953 22.5206 12.167 23.2926C10.627 23.2366 9.48598 21.7476 9.32298 20.3026C9.09598 19.0716 9.52497 17.8746 9.91497 16.7376C11.172 17.6686 12.588 18.6716 12.974 20.2896Z" fill="url(#paint0_linear_58_15595)" stroke="#010101" stroke-width="0.0402" stroke-miterlimit="10.43"/>
<defs>
<linearGradient id="paint0_linear_58_15595" x1="110.356" y1="27.7522" x2="-17.9558" y2="-9.96452" gradientUnits="userSpaceOnUse">
<stop stop-color="#6C63FF"/>
<stop offset="1" stop-color="#413B99"/>
</linearGradient>
</defs>
</svg>
