<svg width="93" height="25" viewBox="0 0 93 25" fill="none" xmlns="http://www.w3.org/2000/svg">
<path d="M0.539001 1.64857C0.526001 0.880571 1.11 0.382552 1.848 0.335552C6.344 -0.333448 11.012 0.361552 15.186 2.15455C19.133 3.71655 23.393 5.53057 27.713 4.48457C28.262 3.30457 28.846 1.89755 30.193 1.45555C31.03 1.10355 32.102 1.75556 32.042 2.70356C31.943 3.96056 30.776 4.71156 30.12 5.67656C33.844 10.9666 40.502 13.6136 46.851 13.4376C53.539 13.3386 59.704 10.4646 66.105 8.91157C69.61 8.04057 73.398 7.86456 76.83 9.15156C79.524 10.0526 81.832 11.8676 83.548 14.1156C86.122 13.2056 89.129 12.3005 91.764 13.4295C91.824 13.6095 91.94 13.9785 92 14.1586C89.512 14.6266 86.985 14.9866 84.63 15.9776C85.235 18.0456 85.672 20.4005 84.557 22.3865C83.776 23.8365 82.185 25.3086 80.413 24.8186C78.478 23.9946 77.809 21.4725 78.414 19.5885C78.933 17.6585 80.469 16.2896 81.885 14.9936C78.83 11.6346 74.124 10.0686 69.654 10.6176C62.155 11.5316 55.325 15.4615 47.723 15.8215C40.185 16.2725 32.064 13.0586 28.109 6.37056C22.952 7.50356 17.903 5.39655 13.072 3.86055C9.034 2.45155 4.727 2.28757 0.539001 1.64857ZM80.026 20.2896C79.648 21.3536 80.047 22.5206 80.833 23.2926C82.373 23.2366 83.514 21.7476 83.677 20.3026C83.904 19.0716 83.475 17.8746 83.085 16.7376C81.828 17.6686 80.412 18.6716 80.026 20.2896Z" fill="url(#paint0_linear_58_15592)" stroke="#010101" stroke-width="0.0402" stroke-miterlimit="10.43"/>
<defs>
<linearGradient id="paint0_linear_58_15592" x1="-17.3558" y1="27.7522" x2="110.956" y2="-9.96452" gradientUnits="userSpaceOnUse">
<stop stop-color="#6C63FF"/>
<stop offset="1" stop-color="#413B99"/>
</linearGradient>
</defs>
</svg>
