<?xml version="1.0" encoding="utf-8"?>
<svg xmlns="http://www.w3.org/2000/svg">
<symbol id="arrow" viewBox="0 0 40 40">
	<g id="next arrow">
		<circle id="Ellipse 60" cx="20" cy="20" r="17" fill="transparent" fill-opacity="0.00999999978"/>
		<circle id="Ellipse 60" cx="20" cy="20" r="18.5" stroke="transparent" stroke-width="3"/>

		<path id="Vector" d="M18.0492 8.19676L10.3033 0.45082C9.69905 -0.150273 8.72311 -0.150273 8.11889 0.45082L0.372949 8.19676C-0.124316 8.77613 -0.124316 9.63285 0.372949 10.2122C0.929121 10.8614 1.90818 10.9372 2.55733 10.3811L9.20334 3.73512L15.8648 10.3811C16.469 10.9822 17.445 10.9822 18.0492 10.3811C18.6503 9.77691 18.6503 8.8009 18.0492 8.19676Z" fill="currentColor" fill-rule="nonzero" transform="matrix(1.19249e-08,-1,-1,-1.19249e-08,26.8319,29.5)"/>
	</g>

</symbol>
<symbol id="done" viewBox="0 0 24 25">
<g clip-path="url(#clip0_50_498)">
<path d="M24 12.499C24 15.814 22.6575 18.8136 20.484 20.9854C18.314 23.1572 15.3131 24.5 11.9999 24.5C5.37357 24.5 0 19.1277 0 12.4992C0 9.18576 1.34252 6.18622 3.516 4.01443C5.68599 1.84263 8.68694 0.5 12.0001 0.5C15.3133 0.5 18.3142 1.84263 20.4842 4.01443C22.6575 6.18602 24 9.18535 24 12.499Z" fill="currentColor"/>
<path d="M19.0117 5.4832L10.2397 19.6857C10.0628 19.9722 9.65121 19.9859 9.45554 19.7121L4.99634 13.4698C4.83583 13.2451 5.09571 12.9607 5.33391 13.1003L9.55695 15.577L18.6009 5.18057C18.8074 4.94358 19.1769 5.21574 19.0117 5.4832Z" fill="white"/>
</g>
<defs>
<clipPath id="clip0_50_498">
<rect width="24" height="24" fill="white" transform="translate(0 0.5)"/>
</clipPath>
</defs>

</symbol>
<symbol id="facebook" viewBox="0 0 32 33">
<circle cx="16" cy="16.894" r="14" fill="currentColor"/>
<path d="M21.2137 21.1756L21.8356 17.2241H17.9452V14.661C17.9452 13.5797 18.4877 12.5251 20.2302 12.5251H22V9.16103C22 9.16103 20.3945 8.89404 18.8603 8.89404C15.6548 8.89404 13.5617 10.787 13.5617 14.2125V17.2241H10V21.1756H13.5617V30.7285C14.2767 30.838 15.0082 30.894 15.7534 30.894C16.4986 30.894 17.2302 30.838 17.9452 30.7285V21.1756H21.2137Z" fill="#F9FAFB"/>

</symbol>
<symbol id="instagram" viewBox="0 0 32 33">
<rect x="2" y="2.89404" width="28" height="28" rx="6" fill="currentColor"/>
<rect x="2" y="2.89404" width="28" height="28" rx="6" fill="currentColor"/>
<path d="M23 11.394C23 12.2225 22.3284 12.894 21.5 12.894C20.6716 12.894 20 12.2225 20 11.394C20 10.5656 20.6716 9.89404 21.5 9.89404C22.3284 9.89404 23 10.5656 23 11.394Z" fill="#F9FAFB"/>
<path fill-rule="evenodd" clip-rule="evenodd" d="M16 21.894C18.7614 21.894 21 19.6555 21 16.894C21 14.1326 18.7614 11.894 16 11.894C13.2386 11.894 11 14.1326 11 16.894C11 19.6555 13.2386 21.894 16 21.894ZM16 19.894C17.6569 19.894 19 18.5509 19 16.894C19 15.2372 17.6569 13.894 16 13.894C14.3431 13.894 13 15.2372 13 16.894C13 18.5509 14.3431 19.894 16 19.894Z" fill="#F9FAFB"/>
<path fill-rule="evenodd" clip-rule="evenodd" d="M6 16.494C6 13.1337 6 11.4536 6.65396 10.1701C7.2292 9.04113 8.14708 8.12324 9.27606 7.548C10.5595 6.89404 12.2397 6.89404 15.6 6.89404H16.4C19.7603 6.89404 21.4405 6.89404 22.7239 7.548C23.8529 8.12324 24.7708 9.04113 25.346 10.1701C26 11.4536 26 13.1337 26 16.494V17.294C26 20.6544 26 22.3345 25.346 23.618C24.7708 24.747 23.8529 25.6648 22.7239 26.2401C21.4405 26.894 19.7603 26.894 16.4 26.894H15.6C12.2397 26.894 10.5595 26.894 9.27606 26.2401C8.14708 25.6648 7.2292 24.747 6.65396 23.618C6 22.3345 6 20.6544 6 17.294V16.494ZM15.6 8.89404H16.4C18.1132 8.89404 19.2777 8.8956 20.1779 8.96915C21.0548 9.04079 21.5032 9.17064 21.816 9.33002C22.5686 9.71351 23.1805 10.3254 23.564 11.0781C23.7234 11.3909 23.8533 11.8393 23.9249 12.7161C23.9984 13.6163 24 14.7809 24 16.494V17.294C24 19.0072 23.9984 20.1718 23.9249 21.072C23.8533 21.9488 23.7234 22.3972 23.564 22.71C23.1805 23.4627 22.5686 24.0746 21.816 24.4581C21.5032 24.6174 21.0548 24.7473 20.1779 24.8189C19.2777 24.8925 18.1132 24.894 16.4 24.894H15.6C13.8868 24.894 12.7223 24.8925 11.8221 24.8189C10.9452 24.7473 10.4968 24.6174 10.184 24.4581C9.43139 24.0746 8.81947 23.4627 8.43597 22.71C8.27659 22.3972 8.14674 21.9488 8.0751 21.072C8.00156 20.1718 8 19.0072 8 17.294V16.494C8 14.7809 8.00156 13.6163 8.0751 12.7161C8.14674 11.8393 8.27659 11.3909 8.43597 11.0781C8.81947 10.3254 9.43139 9.71351 10.184 9.33002C10.4968 9.17064 10.9452 9.04079 11.8221 8.96915C12.7223 8.8956 13.8868 8.89404 15.6 8.89404Z" fill="#F9FAFB"/>

</symbol>
<symbol id="linkedin" viewBox="0 0 32 33">
<rect x="2" y="2.89404" width="28" height="28" rx="14" fill="currentColor"/>
<path d="M12.6186 10.5862C12.6186 11.5207 11.8085 12.2783 10.8093 12.2783C9.81004 12.2783 9 11.5207 9 10.5862C9 9.65164 9.81004 8.89404 10.8093 8.89404C11.8085 8.89404 12.6186 9.65164 12.6186 10.5862Z" fill="#F9FAFB"/>
<path d="M9.24742 13.5221H12.3402V22.894H9.24742V13.5221Z" fill="#F9FAFB"/>
<path d="M17.3196 13.5221H14.2268V22.894H17.3196C17.3196 22.894 17.3196 19.9436 17.3196 18.0989C17.3196 16.9917 17.6977 15.8796 19.2062 15.8796C20.911 15.8796 20.9008 17.3286 20.8928 18.4511C20.8824 19.9185 20.9072 21.4159 20.9072 22.894H24V17.9478C23.9738 14.7894 23.1508 13.3341 20.4433 13.3341C18.8354 13.3341 17.8387 14.0641 17.3196 14.7245V13.5221Z" fill="#F9FAFB"/>

</symbol>
<symbol id="logo" viewBox="0 0 159 54">
<path d="M20.6387 0C25.5487 1.42805e-05 29.5292 3.80295 29.5293 8.49414C29.5293 11.9655 27.3485 14.9479 24.2256 16.2656L25.8467 20.0273C26.7525 19.7301 27.724 19.5674 28.7354 19.5674C33.6454 19.5674 37.626 23.3703 37.626 28.0615C37.626 31.5732 35.395 34.5862 32.2139 35.8799L33.7744 40.8096C34.6826 40.4163 35.6909 40.1963 36.7529 40.1963C40.7422 40.1964 43.9764 43.2862 43.9766 47.0977C43.9766 50.9092 40.7422 53.9999 36.7529 54C32.7635 54 29.5293 50.9093 29.5293 47.0977C29.5294 44.6565 30.8564 42.5121 32.8584 41.2852L31.2207 36.2158C30.4317 36.435 29.5984 36.5557 28.7354 36.5557C27.2848 36.5557 25.9166 36.2215 24.707 35.6328L18.6377 39.4287L18.5361 39.377C20.2223 40.9228 21.2733 43.0959 21.2734 45.5049C21.2734 50.1962 17.2929 54 12.3828 54C7.4729 53.9998 3.49316 50.196 3.49316 45.5049C3.49336 40.8139 7.47303 37.0109 12.3828 37.0107C14.4291 37.0107 16.3129 37.6732 17.8154 38.7832L23.6982 35.0596C21.3713 33.5277 19.8447 30.9656 19.8447 28.0615C19.8447 24.6609 21.9369 21.728 24.958 20.3711L23.2891 16.6035C22.4519 16.853 21.5619 16.9883 20.6387 16.9883C15.7286 16.9883 11.748 13.1854 11.748 8.49414C11.7481 3.80294 15.7286 0 20.6387 0ZM78.8779 34.4336C79.5743 34.4336 80.2238 34.5136 80.8252 34.6719C81.4424 34.8143 82.0358 35.0439 82.6055 35.3604C82.8427 35.4869 83.0009 35.6528 83.0801 35.8584C83.175 36.0642 83.1989 36.2784 83.1514 36.5C83.1039 36.7056 83.0085 36.8954 82.8662 37.0693C82.7238 37.2275 82.5418 37.3305 82.3203 37.3779C82.1146 37.4095 81.8773 37.3619 81.6084 37.2354C81.1178 36.9821 80.6426 36.8002 80.1836 36.6895C79.7407 36.5788 79.3136 36.5235 78.9023 36.5234C78.1269 36.5234 77.5488 36.6578 77.1689 36.9268C76.8049 37.1958 76.6231 37.552 76.623 37.9951C76.623 38.3275 76.7335 38.6046 76.9551 38.8262C77.1766 39.0477 77.5168 39.1982 77.9756 39.2773L80.3506 39.7285C81.379 39.9184 82.1545 40.2662 82.6768 40.7725C83.2148 41.2789 83.4843 41.9599 83.4844 42.8145C83.4844 43.9698 83.033 44.8802 82.1309 45.5449C81.2288 46.1938 80.0259 46.5185 78.5225 46.5186C77.8419 46.5186 77.121 46.4471 76.3613 46.3047C75.6018 46.1622 74.9216 45.9165 74.3203 45.5684C74.0671 45.4101 73.8842 45.2282 73.7734 45.0225C73.6786 44.8011 73.6395 44.5874 73.6553 44.3818C73.6869 44.1603 73.766 43.9698 73.8926 43.8115C74.035 43.6533 74.2094 43.5504 74.415 43.5029C74.6366 43.4555 74.8738 43.4955 75.127 43.6221C75.7599 43.9227 76.3534 44.1361 76.9072 44.2627C77.4612 44.3735 78.0078 44.4287 78.5459 44.4287C79.3056 44.4287 79.8674 44.3021 80.2314 44.0488C80.6111 43.7798 80.8007 43.432 80.8008 43.0049C80.8008 42.6409 80.6741 42.3638 80.4209 42.1738C80.1835 41.9682 79.8196 41.8176 79.3291 41.7227L76.9551 41.2715C75.974 41.0816 75.2225 40.7253 74.7002 40.2031C74.1937 39.665 73.9404 38.9765 73.9404 38.1377C73.9404 37.378 74.1461 36.721 74.5576 36.167C74.9849 35.6132 75.5707 35.1854 76.3145 34.8848C77.0582 34.5842 77.9127 34.4336 78.8779 34.4336ZM90.4707 34.4336C91.167 34.4336 91.8157 34.5136 92.417 34.6719C93.0343 34.8143 93.6285 35.0438 94.1982 35.3604C94.4354 35.4869 94.5938 35.6528 94.6729 35.8584C94.7678 36.0642 94.7916 36.2784 94.7441 36.5C94.6966 36.7056 94.6013 36.8953 94.459 37.0693C94.3166 37.2276 94.1346 37.3304 93.9131 37.3779C93.7074 37.4096 93.4701 37.3619 93.2012 37.2354C92.7106 36.9821 92.2353 36.8002 91.7764 36.6895C91.3332 36.5787 90.9057 36.5234 90.4941 36.5234C89.7187 36.5234 89.1406 36.6577 88.7607 36.9268C88.3969 37.1958 88.2149 37.5521 88.2148 37.9951C88.2148 38.3275 88.3263 38.6046 88.5479 38.8262C88.7694 39.0476 89.1095 39.1982 89.5684 39.2773L91.9424 39.7285C92.9712 39.9184 93.7472 40.266 94.2695 40.7725C94.8076 41.2789 95.0761 41.9599 95.0762 42.8145C95.0762 43.9699 94.6248 44.8802 93.7227 45.5449C92.8205 46.1937 91.6177 46.5186 90.1143 46.5186C89.4338 46.5185 88.7137 46.4471 87.9541 46.3047C87.1944 46.1622 86.5135 45.9166 85.9121 45.5684C85.659 45.4101 85.477 45.2282 85.3662 45.0225C85.2713 44.801 85.2313 44.5875 85.2471 44.3818C85.2787 44.1603 85.3587 43.9698 85.4854 43.8115C85.6277 43.6535 85.8014 43.5504 86.0068 43.5029C86.2284 43.4554 86.4665 43.4955 86.7197 43.6221C87.3527 43.9227 87.9462 44.1361 88.5 44.2627C89.0538 44.3735 89.5997 44.4287 90.1377 44.4287C90.8974 44.4287 91.4602 44.3021 91.8242 44.0488C92.2037 43.7799 92.3935 43.4319 92.3936 43.0049C92.3936 42.6409 92.2669 42.3638 92.0137 42.1738C91.7763 41.9681 91.4124 41.8176 90.9219 41.7227L88.5479 41.2715C87.5666 41.0816 86.8143 40.7254 86.292 40.2031C85.7856 39.665 85.5322 38.9765 85.5322 38.1377C85.5322 37.378 85.7379 36.721 86.1494 36.167C86.5767 35.613 87.1624 35.1855 87.9062 34.8848C88.6501 34.584 89.5052 34.4336 90.4707 34.4336ZM108.114 34.4336C108.811 34.4336 109.459 34.5136 110.061 34.6719C110.678 34.8143 111.272 35.0438 111.842 35.3604C112.079 35.4869 112.237 35.6528 112.316 35.8584C112.411 36.0642 112.435 36.2784 112.388 36.5C112.34 36.7056 112.245 36.8953 112.103 37.0693C111.96 37.2276 111.778 37.3304 111.557 37.3779C111.351 37.4096 111.114 37.3619 110.845 37.2354C110.354 36.9821 109.879 36.8002 109.42 36.6895C108.977 36.5787 108.549 36.5234 108.138 36.5234C107.362 36.5234 106.784 36.6577 106.404 36.9268C106.04 37.1958 105.858 37.5521 105.858 37.9951C105.858 38.3275 105.97 38.6046 106.191 38.8262C106.413 39.0476 106.753 39.1982 107.212 39.2773L109.586 39.7285C110.614 39.9184 111.39 40.2662 111.912 40.7725C112.45 41.2789 112.72 41.9599 112.72 42.8145C112.72 43.9699 112.268 44.8802 111.366 45.5449C110.464 46.1937 109.261 46.5186 107.758 46.5186C107.077 46.5185 106.357 46.4471 105.598 46.3047C104.838 46.1622 104.157 45.9166 103.556 45.5684C103.303 45.4101 103.121 45.2282 103.01 45.0225C102.915 44.801 102.875 44.5875 102.891 44.3818C102.922 44.1603 103.001 43.9698 103.128 43.8115C103.27 43.6533 103.445 43.5504 103.65 43.5029C103.872 43.4554 104.11 43.4955 104.363 43.6221C104.996 43.9227 105.59 44.1361 106.144 44.2627C106.697 44.3735 107.243 44.4287 107.781 44.4287C108.541 44.4287 109.103 44.302 109.467 44.0488C109.847 43.7798 110.037 43.4321 110.037 43.0049C110.037 42.6409 109.91 42.3638 109.657 42.1738C109.42 41.9681 109.056 41.8176 108.565 41.7227L106.191 41.2715C105.21 41.0816 104.458 40.7254 103.936 40.2031C103.429 39.665 103.176 38.9765 103.176 38.1377C103.176 37.378 103.381 36.721 103.793 36.167C104.22 35.613 104.806 35.1855 105.55 34.8848C106.294 34.584 107.149 34.4336 108.114 34.4336ZM117.192 31.0156C117.667 31.0156 118.031 31.1423 118.284 31.3955C118.537 31.6487 118.664 32.0202 118.664 32.5107V34.6719H121.181C121.56 34.6719 121.854 34.7662 122.06 34.9561C122.265 35.146 122.368 35.4232 122.368 35.7871C122.368 36.1353 122.265 36.4124 122.06 36.6182C121.854 36.8081 121.561 36.9033 121.181 36.9033H118.664V41.7939C118.664 42.5535 118.831 43.1231 119.163 43.5029C119.495 43.8828 120.034 44.0732 120.777 44.0732C121.046 44.0732 121.284 44.0494 121.489 44.002C121.695 43.9545 121.878 43.9231 122.036 43.9072C122.226 43.8915 122.384 43.9543 122.511 44.0967C122.637 44.2233 122.7 44.4929 122.7 44.9043C122.7 45.2207 122.645 45.5057 122.534 45.7588C122.439 45.996 122.257 46.1619 121.988 46.2568C121.783 46.3201 121.513 46.3754 121.181 46.4229C120.848 46.4861 120.556 46.5185 120.303 46.5186C119.274 46.5186 118.411 46.3443 117.715 45.9961C117.034 45.6479 116.528 45.1413 116.195 44.4766C115.863 43.796 115.697 42.9571 115.697 41.96V36.9033H114.462C114.082 36.9032 113.79 36.808 113.584 36.6182C113.378 36.4124 113.275 36.1353 113.275 35.7871C113.275 35.4232 113.378 35.146 113.584 34.9561C113.79 34.7663 114.082 34.6719 114.462 34.6719H115.697V32.5107C115.697 32.0202 115.824 31.6487 116.077 31.3955C116.346 31.1423 116.718 31.0157 117.192 31.0156ZM129.058 34.4336C130.197 34.4336 131.131 34.6079 131.859 34.9561C132.603 35.3042 133.157 35.8347 133.521 36.5469C133.886 37.2433 134.067 38.146 134.067 39.2539V44.9512C134.067 45.4418 133.948 45.8218 133.711 46.0908C133.474 46.344 133.134 46.4707 132.69 46.4707C132.247 46.4707 131.899 46.3441 131.646 46.0908C131.408 45.8218 131.29 45.4417 131.29 44.9512V44.4482C131.171 44.744 131.012 45.0146 130.814 45.2598C130.498 45.6553 130.095 45.964 129.604 46.1855C129.114 46.4071 128.552 46.5185 127.919 46.5186C127.08 46.5186 126.328 46.3595 125.663 46.043C125.014 45.7106 124.5 45.2677 124.12 44.7139C123.756 44.16 123.574 43.5351 123.574 42.8389C123.574 41.9843 123.795 41.311 124.238 40.8203C124.681 40.3138 125.402 39.9501 126.399 39.7285C127.396 39.507 128.734 39.3955 130.411 39.3955H131.242V38.8975C131.242 38.1062 131.068 37.5367 130.72 37.1885C130.372 36.8403 129.786 36.666 128.963 36.666C128.504 36.666 128.006 36.7213 127.468 36.832C126.946 36.9428 126.391 37.1324 125.806 37.4014C125.505 37.5438 125.235 37.5838 124.998 37.5205C124.777 37.4572 124.602 37.3305 124.476 37.1406C124.349 36.9349 124.286 36.7129 124.286 36.4756C124.286 36.2383 124.349 36.0086 124.476 35.7871C124.602 35.5497 124.816 35.3754 125.117 35.2646C125.845 34.964 126.541 34.7506 127.206 34.624C127.886 34.4974 128.504 34.4336 129.058 34.4336ZM153.175 31.0156C153.65 31.0156 154.014 31.1423 154.268 31.3955C154.521 31.6487 154.647 32.0205 154.647 32.5107V34.6719H157.164C157.544 34.6719 157.836 34.7663 158.042 34.9561C158.248 35.146 158.351 35.4232 158.351 35.7871C158.351 36.1353 158.248 36.4124 158.042 36.6182C157.836 36.808 157.544 36.9032 157.164 36.9033H154.647V41.7939C154.647 42.5535 154.813 43.1231 155.146 43.5029C155.478 43.8827 156.016 44.0732 156.76 44.0732C157.029 44.0732 157.267 44.0494 157.473 44.002C157.678 43.9545 157.86 43.923 158.019 43.9072C158.208 43.8915 158.367 43.9543 158.493 44.0967C158.62 44.2233 158.683 44.4928 158.683 44.9043C158.683 45.2207 158.627 45.5057 158.517 45.7588C158.422 45.996 158.24 46.1619 157.971 46.2568C157.765 46.3201 157.496 46.3754 157.164 46.4229C156.832 46.4862 156.538 46.5186 156.285 46.5186C155.256 46.5186 154.394 46.3443 153.697 45.9961C153.017 45.6479 152.51 45.1413 152.178 44.4766C151.845 43.796 151.68 42.957 151.68 41.96V36.9033H150.445C150.065 36.9033 149.772 36.8081 149.566 36.6182C149.361 36.4124 149.258 36.1353 149.258 35.7871C149.258 35.4232 149.361 35.146 149.566 34.9561C149.772 34.7662 150.066 34.6719 150.445 34.6719H151.68V32.5107C151.68 32.0202 151.806 31.6487 152.06 31.3955C152.329 31.1423 152.7 31.0157 153.175 31.0156ZM64.1035 29.3535C64.4675 29.3535 64.7923 29.4564 65.0771 29.6621C65.3778 29.8521 65.6312 30.1769 65.8369 30.6357L72.1279 44.5244C72.3019 44.8883 72.3649 45.2209 72.3174 45.5215C72.2698 45.822 72.1355 46.0594 71.9141 46.2334C71.6926 46.3916 71.3999 46.4707 71.0361 46.4707C70.593 46.4707 70.2444 46.3679 69.9912 46.1621C69.7538 45.9405 69.5405 45.6081 69.3506 45.165L68.165 42.4111H60L58.833 45.165C58.6273 45.6239 58.4139 45.9563 58.1924 46.1621C57.9708 46.3679 57.6537 46.4707 57.2422 46.4707C56.8625 46.4707 56.5538 46.384 56.3164 46.21C56.0949 46.0359 55.9606 45.8062 55.9131 45.5215C55.8656 45.2208 55.9209 44.8883 56.0791 44.5244L62.3467 30.6357C62.5524 30.1767 62.7981 29.852 63.083 29.6621C63.3837 29.4565 63.7238 29.3535 64.1035 29.3535ZM143.846 34.4336C144.779 34.4336 145.547 34.608 146.148 34.9561C146.75 35.3042 147.201 35.8347 147.502 36.5469C147.803 37.2433 147.953 38.1298 147.953 39.2061V44.9512C147.953 45.4418 147.826 45.8218 147.573 46.0908C147.32 46.344 146.956 46.4706 146.481 46.4707C146.007 46.4707 145.634 46.3441 145.365 46.0908C145.112 45.8218 144.985 45.4418 144.985 44.9512V39.3486C144.985 38.4465 144.811 37.7894 144.463 37.3779C144.131 36.9665 143.608 36.7608 142.896 36.7607C142.026 36.7607 141.329 37.0378 140.807 37.5918C140.3 38.1299 140.047 38.85 140.047 39.752V44.9512C140.047 45.9641 139.549 46.4706 138.552 46.4707C138.077 46.4707 137.712 46.3441 137.459 46.0908C137.206 45.8218 137.08 45.4416 137.08 44.9512V35.9775C137.08 35.487 137.206 35.1146 137.459 34.8613C137.712 34.6082 138.069 34.4815 138.527 34.4814C138.986 34.4814 139.342 34.6083 139.596 34.8613C139.849 35.1146 139.976 35.4869 139.976 35.9775V36.4727C140.312 35.8903 140.762 35.4314 141.329 35.0986C142.073 34.6555 142.912 34.4336 143.846 34.4336ZM98.9287 34.5049C99.4035 34.5049 99.7682 34.6477 100.021 34.9326C100.29 35.2017 100.425 35.5979 100.425 36.1201V44.833C100.425 45.3392 100.298 45.7347 100.045 46.0195C99.7917 46.3044 99.4194 46.4473 98.9287 46.4473C98.454 46.4472 98.0901 46.3044 97.8369 46.0195C97.5838 45.7347 97.4571 45.3393 97.457 44.833V36.1201C97.457 35.5978 97.5837 35.2017 97.8369 34.9326C98.0901 34.6478 98.454 34.5049 98.9287 34.5049ZM130.436 41.1055C129.454 41.1055 128.671 41.1531 128.085 41.248C127.499 41.343 127.079 41.5087 126.826 41.7461C126.589 41.9677 126.471 42.2848 126.471 42.6963C126.471 43.2184 126.653 43.6452 127.017 43.9775C127.381 44.3099 127.887 44.4766 128.536 44.4766C129.058 44.4765 129.517 44.3575 129.913 44.1201C130.324 43.8669 130.648 43.5267 130.886 43.0996C131.123 42.6724 131.242 42.1818 131.242 41.6279V41.1055H130.436ZM61.0518 39.9893H67.1299L64.1035 32.8438H64.0557L61.0518 39.9893ZM6.42969 21.5391C9.98073 21.5391 12.8594 24.2898 12.8594 27.6826C12.8592 31.0753 9.98064 33.8252 6.42969 33.8252C2.87875 33.8252 0.000144838 31.0753 0 27.6826C0 24.2898 2.87867 21.5391 6.42969 21.5391ZM98.9287 29.1631C99.4984 29.1631 99.9337 29.2984 100.234 29.5674C100.535 29.8364 100.686 30.224 100.686 30.7305C100.686 31.2211 100.535 31.6087 100.234 31.8936C99.9337 32.1626 99.4984 32.2979 98.9287 32.2979C98.3749 32.2978 97.9395 32.1626 97.623 31.8936C97.3225 31.6087 97.1719 31.221 97.1719 30.7305C97.1719 30.2241 97.3225 29.8364 97.623 29.5674C97.9395 29.2984 98.3749 29.1631 98.9287 29.1631ZM63.2012 8.30566C64.1508 8.30566 65.0535 8.4247 65.9082 8.66211C66.7627 8.89952 67.5305 9.24811 68.2109 9.70703C68.4639 9.88106 68.6299 10.0946 68.709 10.3477C68.8039 10.6009 68.8278 10.8542 68.7803 11.1074C68.7328 11.3448 68.6223 11.5505 68.4482 11.7246C68.2741 11.8987 68.0523 12.0015 67.7832 12.0332C67.5301 12.0648 67.2375 11.9857 66.9053 11.7959C66.3197 11.4635 65.7255 11.2264 65.124 11.084C64.5227 10.9416 63.874 10.8701 63.1777 10.8701C62.4497 10.8701 61.8241 10.973 61.3018 11.1787C60.7796 11.3844 60.3757 11.6769 60.0908 12.0566C59.8218 12.4207 59.6875 12.8568 59.6875 13.3633C59.6876 13.9329 59.8781 14.3921 60.2578 14.7402C60.6377 15.0724 61.2865 15.3336 62.2041 15.5234L64.792 16.0693C66.3589 16.4017 67.5225 16.9245 68.2822 17.6367C69.0575 18.3489 69.4453 19.2985 69.4453 20.4854C69.4453 21.245 69.2872 21.9336 68.9707 22.5508C68.67 23.168 68.2262 23.6984 67.6406 24.1416C67.0709 24.5847 66.3822 24.9247 65.5752 25.1621C64.768 25.3995 63.8576 25.5186 62.8447 25.5186C62.1485 25.5185 61.4521 25.4633 60.7559 25.3525C60.0595 25.2576 59.4024 25.1071 58.7852 24.9014C58.1681 24.6798 57.6146 24.4102 57.124 24.0938C56.8391 23.9038 56.6411 23.6743 56.5303 23.4053C56.4195 23.1363 56.3795 22.8752 56.4111 22.6221C56.4586 22.3531 56.5616 22.1235 56.7197 21.9336C56.8938 21.7278 57.1081 21.6012 57.3613 21.5537C57.6145 21.5063 57.8918 21.5777 58.1924 21.7676C58.8885 22.1788 59.6242 22.4791 60.3994 22.6689C61.1748 22.8588 61.9902 22.9541 62.8447 22.9541C64.095 22.9541 65.0054 22.7484 65.5752 22.3369C66.1449 21.9097 66.4296 21.3638 66.4297 20.6992C66.4297 20.1453 66.224 19.7101 65.8125 19.3936C65.4168 19.077 64.7284 18.8151 63.7471 18.6094L61.1357 18.0635C59.6322 17.7469 58.5085 17.2165 57.7646 16.4727C57.0367 15.713 56.6729 14.7159 56.6729 13.4814C56.6729 12.7059 56.8309 12.0012 57.1475 11.3682C57.464 10.7353 57.907 10.1893 58.4766 9.73047C59.0621 9.27151 59.7507 8.92296 60.542 8.68555C61.3492 8.43232 62.2357 8.30567 63.2012 8.30566ZM97.5498 13.4336C98.6893 13.4336 99.6235 13.6079 100.352 13.9561C101.095 14.3043 101.65 14.8347 102.014 15.5469C102.378 16.2433 102.56 17.146 102.56 18.2539V23.9512C102.56 24.4418 102.441 24.8218 102.203 25.0908C101.966 25.344 101.626 25.4707 101.183 25.4707C100.739 25.4707 100.391 25.3441 100.138 25.0908C99.9004 24.8218 99.7822 24.4417 99.7822 23.9512V23.4482C99.6629 23.744 99.5047 24.0146 99.3066 24.2598C98.9902 24.6553 98.5871 24.964 98.0967 25.1855C97.606 25.4071 97.0433 25.5186 96.4102 25.5186C95.5715 25.5185 94.8199 25.3595 94.1553 25.043C93.5064 24.7106 92.9921 24.2678 92.6123 23.7139C92.2484 23.16 92.0665 22.5351 92.0664 21.8389C92.0664 20.9842 92.2873 20.311 92.7305 19.8203C93.1736 19.3138 93.8945 18.9501 94.8916 18.7285C95.8887 18.507 97.2259 18.3955 98.9033 18.3955H99.7344V17.8975C99.7344 17.1062 99.56 16.5367 99.2119 16.1885C98.8637 15.8403 98.2781 15.666 97.4551 15.666C96.9962 15.666 96.4979 15.7213 95.96 15.832C95.4377 15.9428 94.8834 16.1324 94.2979 16.4014C93.9971 16.5438 93.7276 16.5838 93.4902 16.5205C93.2687 16.4572 93.0944 16.3305 92.9678 16.1406C92.8412 15.9349 92.7783 15.713 92.7783 15.4756C92.7784 15.2383 92.8412 15.0086 92.9678 14.7871C93.0944 14.5497 93.3087 14.3754 93.6094 14.2646C94.3373 13.964 95.0336 13.7506 95.6982 13.624C96.3787 13.4974 96.9959 13.4336 97.5498 13.4336ZM117.749 10.0156C118.224 10.0156 118.588 10.1423 118.841 10.3955C119.094 10.6487 119.221 11.0203 119.221 11.5107V13.6719H121.737C122.117 13.6719 122.41 13.7661 122.616 13.9561C122.822 14.1459 122.925 14.4232 122.925 14.7871C122.925 15.1352 122.822 15.4124 122.616 15.6182C122.41 15.8081 122.117 15.9033 121.737 15.9033H119.221V20.7939C119.221 21.5536 119.387 22.1231 119.72 22.5029C120.052 22.8828 120.59 23.0732 121.334 23.0732C121.603 23.0732 121.84 23.0494 122.046 23.002C122.251 22.9545 122.434 22.9231 122.592 22.9072C122.782 22.8914 122.941 22.9542 123.067 23.0967C123.194 23.2234 123.257 23.493 123.257 23.9043C123.257 24.2207 123.202 24.5057 123.091 24.7588C122.996 24.996 122.814 25.1619 122.545 25.2568C122.339 25.3201 122.07 25.3754 121.737 25.4229C121.405 25.4861 121.113 25.5185 120.859 25.5186C119.831 25.5186 118.968 25.3442 118.271 24.9961C117.591 24.6479 117.084 24.1413 116.752 23.4766C116.42 22.796 116.253 21.9571 116.253 20.96V15.9033H115.019C114.639 15.9033 114.346 15.808 114.141 15.6182C113.935 15.4124 113.832 15.1353 113.832 14.7871C113.832 14.4232 113.935 14.1459 114.141 13.9561C114.346 13.7663 114.639 13.6719 115.019 13.6719H116.253V11.5107C116.253 11.0205 116.38 10.6487 116.633 10.3955C116.902 10.1423 117.274 10.0156 117.749 10.0156ZM85.6094 13.4336C86.4957 13.4336 87.2242 13.6079 87.7939 13.9561C88.3795 14.3042 88.8147 14.8347 89.0996 15.5469C89.3845 16.2433 89.5264 17.1298 89.5264 18.2061V23.9512C89.5264 24.4418 89.3921 24.8218 89.123 25.0908C88.8698 25.344 88.506 25.4707 88.0312 25.4707C87.5565 25.4707 87.1927 25.344 86.9395 25.0908C86.6862 24.8218 86.5596 24.4418 86.5596 23.9512V18.3252C86.5596 17.439 86.409 16.7894 86.1084 16.3779C85.8235 15.9664 85.3321 15.7607 84.6357 15.7607C83.8604 15.7608 83.2507 16.0379 82.8076 16.5918C82.3647 17.1298 82.1436 17.8816 82.1436 18.8467V23.9512C82.1436 24.4417 82.0168 24.8218 81.7637 25.0908C81.5104 25.3441 81.1457 25.4707 80.6709 25.4707C80.1963 25.4706 79.8246 25.344 79.5557 25.0908C79.3024 24.8218 79.1758 24.4418 79.1758 23.9512V18.3252C79.1758 17.4389 79.0253 16.7894 78.7246 16.3779C78.4397 15.9664 77.9569 15.7607 77.2764 15.7607C76.5008 15.7608 75.8914 16.0378 75.4482 16.5918C75.0052 17.1299 74.7833 17.8815 74.7832 18.8467V23.9512C74.7832 24.9641 74.2851 25.4706 73.2881 25.4707C72.8134 25.4707 72.4495 25.3439 72.1963 25.0908C71.9431 24.8218 71.8164 24.4418 71.8164 23.9512V14.9775C71.8164 14.4869 71.9431 14.1146 72.1963 13.8613C72.4495 13.6083 72.8058 13.4814 73.2646 13.4814C73.7232 13.4815 74.0789 13.6084 74.332 13.8613C74.5853 14.1146 74.7119 14.4869 74.7119 14.9775V15.4541C75.0158 14.9148 75.4187 14.4702 75.9229 14.1221C76.5875 13.6631 77.3791 13.4337 78.2969 13.4336C79.2307 13.4336 79.9991 13.6555 80.6006 14.0986C81.1014 14.4677 81.4733 15.0027 81.7217 15.7012C82.0419 15.0694 82.4974 14.5582 83.0928 14.1699C83.8208 13.6793 84.6598 13.4336 85.6094 13.4336ZM112.124 13.4336C112.456 13.4019 112.717 13.4897 112.907 13.6953C113.113 13.8852 113.232 14.1861 113.264 14.5977C113.295 14.9932 113.2 15.3171 112.979 15.5703C112.773 15.8077 112.457 15.9506 112.029 15.998L111.507 16.0459C110.542 16.1408 109.814 16.4411 109.323 16.9473C108.833 17.4379 108.587 18.1349 108.587 19.0371V23.9512C108.587 24.4418 108.46 24.8218 108.207 25.0908C107.954 25.3441 107.581 25.4707 107.091 25.4707C106.6 25.4707 106.22 25.344 105.951 25.0908C105.698 24.8218 105.571 24.4417 105.571 23.9512V14.9775C105.571 14.487 105.698 14.1146 105.951 13.8613C106.204 13.6082 106.561 13.4815 107.02 13.4814C107.478 13.4814 107.835 13.6082 108.088 13.8613C108.341 14.1146 108.468 14.4869 108.468 14.9775V15.7324C108.713 15.1401 109.068 14.6662 109.536 14.3125C110.185 13.8219 111.048 13.5286 112.124 13.4336ZM98.9268 20.1055C97.9458 20.1055 97.1627 20.1531 96.5771 20.248C95.9916 20.343 95.5716 20.5087 95.3184 20.7461C95.0809 20.9677 94.9619 21.2848 94.9619 21.6963C94.962 22.2184 95.1449 22.6452 95.5088 22.9775C95.8728 23.3099 96.3794 23.4766 97.0283 23.4766C97.5504 23.4765 98.0097 23.3575 98.4053 23.1201C98.8165 22.8669 99.1406 22.5267 99.3779 22.0996C99.6153 21.6724 99.7343 21.1818 99.7344 20.6279V20.1055H98.9268Z" fill="url(#paint0_linear_2033_20)"/>
<defs>
<linearGradient id="paint0_linear_2033_20" x1="-31.0466" y1="60.1714" x2="198.2" y2="6.41465" gradientUnits="userSpaceOnUse">
<stop stop-color="#6C63FF"/>
<stop offset="1" stop-color="#413B99"/>
</linearGradient>
</defs>

</symbol>
<symbol id="telegram" viewBox="0 0 32 33">
<circle cx="16" cy="16.894" r="14" fill="currentColor"/>
<path d="M22.9866 11.1028C23.1112 10.2974 22.3454 9.6616 21.6292 9.97604L7.36482 16.2389C6.85123 16.4644 6.8888 17.2423 7.42147 17.4119L10.3631 18.3487C10.9246 18.5275 11.5325 18.4351 12.0228 18.0964L18.655 13.5143C18.855 13.3761 19.073 13.6605 18.9021 13.8367L14.1281 18.7587C13.665 19.2362 13.7569 20.0452 14.314 20.3945L19.659 23.7463C20.2585 24.1223 21.0297 23.7446 21.1418 23.0202L22.9866 11.1028Z" fill="#F9FAFB"/>

</symbol>
<symbol id="vector-left" viewBox="0 0 93 25">
<path d="M0.539001 1.64857C0.526001 0.880571 1.11 0.382552 1.848 0.335552C6.344 -0.333448 11.012 0.361552 15.186 2.15455C19.133 3.71655 23.393 5.53057 27.713 4.48457C28.262 3.30457 28.846 1.89755 30.193 1.45555C31.03 1.10355 32.102 1.75556 32.042 2.70356C31.943 3.96056 30.776 4.71156 30.12 5.67656C33.844 10.9666 40.502 13.6136 46.851 13.4376C53.539 13.3386 59.704 10.4646 66.105 8.91157C69.61 8.04057 73.398 7.86456 76.83 9.15156C79.524 10.0526 81.832 11.8676 83.548 14.1156C86.122 13.2056 89.129 12.3005 91.764 13.4295C91.824 13.6095 91.94 13.9785 92 14.1586C89.512 14.6266 86.985 14.9866 84.63 15.9776C85.235 18.0456 85.672 20.4005 84.557 22.3865C83.776 23.8365 82.185 25.3086 80.413 24.8186C78.478 23.9946 77.809 21.4725 78.414 19.5885C78.933 17.6585 80.469 16.2896 81.885 14.9936C78.83 11.6346 74.124 10.0686 69.654 10.6176C62.155 11.5316 55.325 15.4615 47.723 15.8215C40.185 16.2725 32.064 13.0586 28.109 6.37056C22.952 7.50356 17.903 5.39655 13.072 3.86055C9.034 2.45155 4.727 2.28757 0.539001 1.64857ZM80.026 20.2896C79.648 21.3536 80.047 22.5206 80.833 23.2926C82.373 23.2366 83.514 21.7476 83.677 20.3026C83.904 19.0716 83.475 17.8746 83.085 16.7376C81.828 17.6686 80.412 18.6716 80.026 20.2896Z" fill="url(#paint0_linear_58_15592)" stroke="#010101" stroke-width="0.0402" stroke-miterlimit="10.43"/>
<defs>
<linearGradient id="paint0_linear_58_15592" x1="-17.3558" y1="27.7522" x2="110.956" y2="-9.96452" gradientUnits="userSpaceOnUse">
<stop stop-color="#6C63FF"/>
<stop offset="1" stop-color="#413B99"/>
</linearGradient>
</defs>

</symbol>
<symbol id="vector-right" viewBox="0 0 93 25">
<path d="M92.461 1.64857C92.474 0.880571 91.89 0.382552 91.152 0.335552C86.656 -0.333448 81.988 0.361552 77.814 2.15455C73.867 3.71655 69.607 5.53057 65.287 4.48457C64.738 3.30457 64.154 1.89755 62.807 1.45555C61.97 1.10355 60.898 1.75556 60.958 2.70356C61.057 3.96056 62.224 4.71156 62.88 5.67656C59.156 10.9666 52.498 13.6136 46.149 13.4376C39.461 13.3386 33.296 10.4646 26.895 8.91157C23.39 8.04057 19.602 7.86456 16.17 9.15156C13.476 10.0526 11.168 11.8676 9.45197 14.1156C6.87798 13.2056 3.87097 12.3005 1.23597 13.4295C1.17597 13.6095 1.05997 13.9785 0.999977 14.1586C3.48798 14.6266 6.01497 14.9866 8.36997 15.9776C7.76497 18.0456 7.32797 20.4005 8.44297 22.3865C9.22397 23.8365 10.815 25.3086 12.587 24.8186C14.522 23.9946 15.191 21.4725 14.586 19.5885C14.067 17.6585 12.531 16.2896 11.115 14.9936C14.17 11.6346 18.876 10.0686 23.346 10.6176C30.845 11.5316 37.675 15.4615 45.277 15.8215C52.815 16.2725 60.936 13.0586 64.891 6.37056C70.048 7.50356 75.097 5.39655 79.928 3.86055C83.966 2.45155 88.273 2.28757 92.461 1.64857ZM12.974 20.2896C13.352 21.3536 12.953 22.5206 12.167 23.2926C10.627 23.2366 9.48598 21.7476 9.32298 20.3026C9.09598 19.0716 9.52497 17.8746 9.91497 16.7376C11.172 17.6686 12.588 18.6716 12.974 20.2896Z" fill="url(#paint0_linear_58_15595)" stroke="#010101" stroke-width="0.0402" stroke-miterlimit="10.43"/>
<defs>
<linearGradient id="paint0_linear_58_15595" x1="110.356" y1="27.7522" x2="-17.9558" y2="-9.96452" gradientUnits="userSpaceOnUse">
<stop stop-color="#6C63FF"/>
<stop offset="1" stop-color="#413B99"/>
</linearGradient>
</defs>

</symbol></svg>