<?xml version="1.0" encoding="utf-8"?><svg xmlns="http://www.w3.org/2000/svg" xmlns:xlink="http://www.w3.org/1999/xlink"><symbol fill="none" viewBox="0 0 9 15" id="svg--arrow" xmlns="http://www.w3.org/2000/svg"><path d="M1.721 13.625 7.676 7.67 1.721 1.715" stroke="#1F2937" stroke-width="1.701" stroke-linecap="round" stroke-linejoin="round"/></symbol><symbol fill="none" viewBox="0 0 22 22" id="svg--close" xmlns="http://www.w3.org/2000/svg"><path d="M21 1 1 21M1 1l20 20" stroke="#1F2937" stroke-width="1.88" stroke-linecap="round" stroke-linejoin="round"/></symbol><symbol fill="none" viewBox="0 0 32 33" id="svg--facebook" xmlns="http://www.w3.org/2000/svg"><circle cx="16" cy="16.894" r="14" fill="#6C63FF"/><path d="m21.214 21.176.622-3.952h-3.89v-2.563c0-1.081.542-2.136 2.284-2.136H22V9.161s-1.605-.267-3.14-.267c-3.205 0-5.298 1.893-5.298 5.319v3.011H10v3.952h3.562v9.553a14.528 14.528 0 0 0 4.383 0v-9.553h3.269Z" fill="#F9FAFB"/></symbol><symbol fill="none" viewBox="0 0 24 24" id="svg--google_reg" xmlns="http://www.w3.org/2000/svg"><path d="M0 0h24v24H0z"/><path d="M23.766 12.276c0-.815-.066-1.635-.207-2.438H12.24v4.621h6.482a5.555 5.555 0 0 1-2.399 3.647v2.998h3.867c2.271-2.09 3.576-5.177 3.576-8.828Z" fill="#4285F4"/><path d="M12.24 24c3.236 0 5.966-1.062 7.954-2.896l-3.867-2.998c-1.075.731-2.464 1.146-4.083 1.146-3.13 0-5.785-2.112-6.737-4.952h-3.99v3.091a12.002 12.002 0 0 0 10.723 6.61Z" fill="#34A853"/><path d="M5.503 14.3a7.188 7.188 0 0 1 0-4.594V6.615H1.517a12.01 12.01 0 0 0 0 10.776l3.986-3.09Z" fill="#FBBC04"/><path d="M12.24 4.75a6.52 6.52 0 0 1 4.603 1.799l3.426-3.426A11.533 11.533 0 0 0 12.24 0 11.998 11.998 0 0 0 1.516 6.615l3.987 3.09C6.45 6.863 9.109 4.75 12.24 4.75Z" fill="#EA4335"/></symbol><symbol fill="none" viewBox="0 0 32 33" id="svg--instagram" xmlns="http://www.w3.org/2000/svg"><rect x="2" y="2.894" width="28" height="28" rx="6" fill="#6C63FF"/><rect x="2" y="2.894" width="28" height="28" rx="6" fill="#6C63FF"/><path d="M23 11.394a1.5 1.5 0 1 1-3 0 1.5 1.5 0 0 1 3 0Z" fill="#F9FAFB"/><path fill-rule="evenodd" clip-rule="evenodd" d="M16 21.894a5 5 0 1 0 0-10 5 5 0 0 0 0 10Zm0-2a3 3 0 1 0 0-6 3 3 0 0 0 0 6Z" fill="#F9FAFB"/><path fill-rule="evenodd" clip-rule="evenodd" d="M6 16.494c0-3.36 0-5.04.654-6.324a6 6 0 0 1 2.622-2.622c1.284-.654 2.964-.654 6.324-.654h.8c3.36 0 5.04 0 6.324.654a6 6 0 0 1 2.622 2.622C26 11.454 26 13.134 26 16.494v.8c0 3.36 0 5.04-.654 6.324a6 6 0 0 1-2.622 2.622c-1.284.654-2.964.654-6.324.654h-.8c-3.36 0-5.04 0-6.324-.654a6 6 0 0 1-2.622-2.622C6 22.334 6 20.654 6 17.294v-.8Zm9.6-7.6h.8c1.713 0 2.878.002 3.778.075.877.072 1.325.202 1.638.361a4 4 0 0 1 1.748 1.748c.16.313.29.761.36 1.638.074.9.076 2.065.076 3.778v.8c0 1.713-.002 2.878-.075 3.778-.072.877-.202 1.325-.361 1.638a4 4 0 0 1-1.748 1.748c-.313.16-.761.29-1.638.36-.9.074-2.065.076-3.778.076h-.8c-1.713 0-2.878-.002-3.778-.075-.877-.072-1.325-.202-1.638-.36a4 4 0 0 1-1.748-1.749c-.16-.313-.29-.761-.36-1.638-.074-.9-.076-2.065-.076-3.778v-.8c0-1.713.002-2.878.075-3.778.072-.877.202-1.325.361-1.638a4 4 0 0 1 1.748-1.748c.313-.16.761-.29 1.638-.36.9-.074 2.065-.076 3.778-.076Z" fill="#F9FAFB"/></symbol><symbol fill="none" viewBox="0 0 32 33" id="svg--linkedin" xmlns="http://www.w3.org/2000/svg"><rect x="2" y="2.894" width="28" height="28" rx="14" fill="#6C63FF"/><path d="M12.619 10.586c0 .935-.81 1.692-1.81 1.692-.999 0-1.809-.757-1.809-1.692 0-.934.81-1.692 1.81-1.692.998 0 1.809.758 1.809 1.692Zm-3.372 2.936h3.093v9.372H9.247v-9.372Zm8.073 0h-3.093v9.372h3.093v-4.795c0-1.107.378-2.22 1.886-2.22 1.705 0 1.695 1.45 1.687 2.572-.01 1.468.014 2.965.014 4.443H24v-4.946c-.026-3.159-.85-4.614-3.557-4.614-1.608 0-2.604.73-3.123 1.39v-1.202Z" fill="#F9FAFB"/></symbol><symbol fill="none" viewBox="0 0 158 57" id="svg--logo" xmlns="http://www.w3.org/2000/svg"><path d="M20.509 0c4.879 0 8.835 4.014 8.835 8.965a8.971 8.971 0 0 1-5.27 8.202l1.61 3.97a8.705 8.705 0 0 1 2.87-.486c4.88 0 8.836 4.014 8.836 8.965 0 3.706-2.218 6.886-5.38 8.251l1.553 5.203a7.062 7.062 0 0 1 2.959-.647c3.964 0 7.177 3.261 7.177 7.284s-3.213 7.283-7.177 7.283c-3.965 0-7.178-3.26-7.178-7.283a7.303 7.303 0 0 1 3.308-6.135l-1.628-5.35a8.69 8.69 0 0 1-6.472-.616l-6.032 4.007-.1-.053a9 9 0 0 1 2.72 6.465c0 4.951-3.955 8.965-8.834 8.965-4.88 0-8.835-4.014-8.835-8.965 0-4.95 3.956-8.965 8.835-8.965 2.033 0 3.904.7 5.397 1.872l5.846-3.93a8.992 8.992 0 0 1-3.83-7.386 8.975 8.975 0 0 1 5.082-8.116l-1.658-3.977a8.71 8.71 0 0 1-2.634.407c-4.88 0-8.835-4.014-8.835-8.965S15.63 0 20.509 0Zm57.945 34.876c.694 0 1.341.079 1.94.236a6.78 6.78 0 0 1 1.775.687c.237.126.395.292.474.497a.992.992 0 0 1 .07.639 1.381 1.381 0 0 1-.283.568.99.99 0 0 1-.544.307c-.205.032-.442-.016-.71-.142a6.371 6.371 0 0 0-1.42-.544 5.271 5.271 0 0 0-1.278-.166c-.773 0-1.35.134-1.728.402a1.262 1.262 0 0 0-.544 1.066c0 .33.11.607.331.828.22.22.56.37 1.018.45l2.366.45c1.025.189 1.799.535 2.32 1.04.536.505.804 1.184.804 2.035 0 1.152-.45 2.059-1.349 2.721-.899.647-2.099.97-3.597.97a11.7 11.7 0 0 1-2.154-.212 6.374 6.374 0 0 1-2.035-.733c-.252-.158-.433-.34-.544-.545a1.35 1.35 0 0 1-.118-.639c.032-.22.11-.41.236-.568a.983.983 0 0 1 .52-.308c.222-.047.459-.007.71.12a8.7 8.7 0 0 0 1.776.638 8.32 8.32 0 0 0 1.633.165c.757 0 1.317-.126 1.68-.378.378-.268.568-.615.568-1.041 0-.363-.126-.64-.379-.83-.237-.204-.6-.354-1.089-.448l-2.366-.45c-.978-.189-1.727-.544-2.248-1.065-.505-.536-.757-1.223-.757-2.059 0-.757.205-1.411.615-1.964.426-.552 1.01-.978 1.751-1.278.742-.3 1.594-.449 2.556-.449Zm11.555 0c.694 0 1.34.079 1.94.236a6.78 6.78 0 0 1 1.775.687c.236.126.394.292.473.497a.992.992 0 0 1 .072.639 1.381 1.381 0 0 1-.285.568.99.99 0 0 1-.544.307c-.205.032-.441-.016-.71-.142a6.37 6.37 0 0 0-1.42-.544 5.27 5.27 0 0 0-1.278-.166c-.773 0-1.349.134-1.727.402a1.262 1.262 0 0 0-.544 1.066c0 .33.11.607.33.828.222.22.561.37 1.018.45l2.367.45c1.025.189 1.798.535 2.319 1.04.536.505.805 1.184.805 2.035 0 1.152-.45 2.059-1.349 2.721-.9.647-2.099.97-3.598.97a11.7 11.7 0 0 1-2.153-.212 6.375 6.375 0 0 1-2.035-.733c-.252-.158-.434-.34-.544-.545a1.35 1.35 0 0 1-.118-.639c.031-.22.11-.41.236-.568a.983.983 0 0 1 .52-.308c.221-.047.458-.007.71.12a8.7 8.7 0 0 0 1.776.638 8.32 8.32 0 0 0 1.633.165c.757 0 1.317-.126 1.68-.378.378-.268.568-.615.568-1.041 0-.363-.127-.64-.38-.83-.236-.204-.6-.354-1.088-.448l-2.366-.45c-.978-.189-1.728-.544-2.248-1.065-.505-.536-.757-1.223-.757-2.059 0-.757.205-1.411.615-1.964.426-.552 1.01-.978 1.751-1.278.742-.3 1.593-.449 2.556-.449Zm17.586 0c.694 0 1.341.079 1.94.236a6.793 6.793 0 0 1 1.776.687c.236.126.393.292.472.497a.984.984 0 0 1 .071.639 1.376 1.376 0 0 1-.284.568.99.99 0 0 1-.544.307c-.205.032-.441-.016-.71-.142a6.361 6.361 0 0 0-1.42-.544 5.257 5.257 0 0 0-1.277-.166c-.773 0-1.349.134-1.727.402a1.262 1.262 0 0 0-.545 1.066c0 .33.111.607.332.828.221.22.559.37 1.016.45l2.367.45c1.026.189 1.798.536 2.319 1.04.536.505.805 1.184.805 2.035-.001 1.152-.45 2.059-1.349 2.721-.899.647-2.098.97-3.597.97-.678 0-1.396-.07-2.153-.212a6.37 6.37 0 0 1-2.035-.733c-.253-.158-.435-.34-.545-.545a1.34 1.34 0 0 1-.118-.639c.031-.22.111-.41.237-.568a.986.986 0 0 1 .52-.308c.221-.047.458-.007.71.12a8.716 8.716 0 0 0 1.775.638c.552.11 1.096.165 1.633.165.757 0 1.317-.126 1.68-.378.379-.268.568-.615.568-1.041 0-.363-.127-.64-.379-.83-.237-.204-.599-.354-1.088-.448l-2.366-.45c-.978-.189-1.729-.544-2.249-1.065-.505-.536-.757-1.223-.757-2.059 0-.757.205-1.411.615-1.964.426-.552 1.01-.978 1.751-1.278.741-.3 1.594-.449 2.556-.449Zm9.05-3.408c.473 0 .835.127 1.087.379.253.252.379.623.379 1.112v2.153h2.509c.379 0 .67.095.875.285.205.189.308.465.308.828 0 .347-.103.623-.308.828-.205.189-.496.284-.875.284h-2.509v4.875c0 .757.166 1.324.497 1.703.332.379.868.568 1.61.568.268 0 .505-.024.71-.07a4.34 4.34 0 0 1 .544-.096.541.541 0 0 1 .473.19c.126.126.189.395.189.805 0 .315-.055.599-.165.851-.095.237-.277.403-.545.497a5.44 5.44 0 0 1-.804.166 4.747 4.747 0 0 1-.876.095c-1.025 0-1.885-.174-2.579-.52a3.358 3.358 0 0 1-1.515-1.515c-.331-.679-.497-1.515-.497-2.509v-5.04h-1.23c-.379 0-.671-.095-.876-.284-.205-.205-.308-.481-.308-.828 0-.363.103-.64.308-.828.205-.19.497-.285.876-.285h1.23V32.96c0-.49.127-.86.379-1.112.268-.253.639-.38 1.113-.38Zm11.826 3.408c1.136 0 2.067.173 2.793.52a3.445 3.445 0 0 1 1.656 1.585c.363.695.544 1.594.544 2.699v5.68c0 .488-.118.867-.355 1.135-.236.253-.576.378-1.017.378-.442 0-.789-.126-1.041-.378-.237-.268-.356-.647-.356-1.136v-.5a3.169 3.169 0 0 1-1.679 1.73c-.489.222-1.05.332-1.681.332-.836 0-1.586-.158-2.248-.474a4.07 4.07 0 0 1-1.538-1.325 3.326 3.326 0 0 1-.544-1.87c0-.85.22-1.522.662-2.01.442-.505 1.16-.868 2.153-1.089.994-.22 2.328-.332 4-.332h.828v-.497c0-.788-.173-1.356-.52-1.703-.347-.347-.931-.52-1.751-.52a7.42 7.42 0 0 0-1.491.165c-.521.11-1.073.3-1.657.568-.299.142-.568.181-.804.118a.908.908 0 0 1-.521-.379 1.242 1.242 0 0 1-.189-.662c0-.236.063-.465.189-.686.127-.237.339-.41.639-.52.726-.3 1.42-.513 2.082-.64a10.191 10.191 0 0 1 1.846-.189Zm24.039-3.408c.473 0 .836.126 1.089.379.252.252.379.623.379 1.112v2.153h2.507c.379 0 .671.095.876.285.205.189.308.465.308.828 0 .347-.103.623-.308.828-.205.189-.497.284-.876.284h-2.507v4.875c0 .757.165 1.324.496 1.703.331.379.868.568 1.609.568.268 0 .505-.024.71-.07a4.42 4.42 0 0 1 .545-.096.544.544 0 0 1 .473.19c.126.126.189.394.189.805 0 .315-.056.599-.166.851-.095.237-.276.403-.544.497a5.43 5.43 0 0 1-.805.166 4.746 4.746 0 0 1-.875.095c-1.025 0-1.886-.173-2.58-.52a3.351 3.351 0 0 1-1.514-1.515c-.332-.679-.496-1.515-.496-2.509v-5.04h-1.232c-.378 0-.67-.095-.875-.284-.205-.205-.308-.481-.308-.828 0-.363.103-.64.308-.828.205-.19.497-.285.875-.285h1.232V32.96c0-.489.125-.86.377-1.112.269-.253.64-.38 1.113-.38ZM63.728 29.81c.362 0 .685.103.97.308.299.19.552.513.757.97l6.27 13.844c.174.362.237.694.19.994a1.08 1.08 0 0 1-.402.71c-.221.157-.513.236-.876.236-.442 0-.789-.102-1.041-.308-.237-.22-.45-.551-.639-.993l-1.182-2.745h-8.137l-1.164 2.745c-.205.457-.418.788-.639.993-.22.206-.536.308-.946.308-.379 0-.687-.086-.923-.26a1.066 1.066 0 0 1-.403-.686c-.047-.3.008-.632.165-.994l6.249-13.843c.205-.458.449-.782.733-.97a1.76 1.76 0 0 1 1.017-.309Zm79.483 5.065c.931 0 1.695.174 2.295.52.599.347 1.05.876 1.349 1.585.3.694.45 1.578.45 2.65v5.728c0 .49-.127.868-.379 1.136-.253.252-.615.378-1.088.378-.473 0-.844-.126-1.112-.378-.253-.268-.379-.647-.379-1.136v-5.585c0-.899-.174-1.553-.521-1.964-.331-.41-.852-.615-1.561-.615-.868 0-1.563.276-2.083.828-.505.537-.757 1.255-.757 2.154v5.182c0 1.01-.498 1.514-1.491 1.514-.473 0-.836-.126-1.088-.378-.253-.268-.379-.647-.379-1.136v-8.945c0-.489.126-.86.379-1.112.252-.252.607-.38 1.064-.38.458 0 .812.128 1.065.38.252.252.379.623.379 1.112v.492a3.7 3.7 0 0 1 1.348-1.368c.742-.442 1.578-.662 2.509-.662Zm-44.772.071c.474 0 .837.142 1.09.426.267.268.402.662.402 1.183v8.684c0 .505-.127.9-.38 1.184-.252.284-.623.426-1.112.426-.473 0-.835-.142-1.087-.426-.253-.284-.38-.679-.38-1.184v-8.684c0-.52.127-.915.38-1.183.252-.284.614-.426 1.087-.426Zm31.405 6.578c-.978 0-1.759.047-2.343.142-.583.095-1.001.26-1.254.497-.237.22-.355.537-.355.947 0 .52.182.947.545 1.278.362.33.867.497 1.513.497.521 0 .979-.12 1.373-.356.41-.252.733-.592.97-1.017.237-.426.355-.915.355-1.467v-.52h-.804Zm-69.159-1.112h6.058l-3.015-7.123h-.048l-2.995 7.123ZM6.39 22.733c3.528 0 6.388 2.902 6.388 6.483 0 3.58-2.86 6.483-6.388 6.483C2.86 35.7 0 32.797 0 29.216c0-3.58 2.86-6.484 6.39-6.484Zm92.05 6.89c.567 0 1.002.133 1.301.401.3.269.45.656.45 1.16 0 .49-.15.876-.45 1.16-.3.268-.734.402-1.302.402-.551 0-.985-.134-1.3-.402-.3-.284-.45-.67-.45-1.16 0-.504.15-.891.45-1.16.315-.268.749-.402 1.3-.402ZM62.827 8.764c.947 0 1.846.118 2.697.354a7.813 7.813 0 0 1 2.296 1.041c.253.174.419.387.497.64.095.252.118.504.07.757a1.18 1.18 0 0 1-.33.615 1.086 1.086 0 0 1-.663.307c-.252.032-.544-.046-.876-.236a6.735 6.735 0 0 0-1.774-.71 8.406 8.406 0 0 0-1.94-.213c-.726 0-1.35.103-1.87.308-.52.205-.923.497-1.207.875-.268.363-.402.797-.402 1.302 0 .568.189 1.026.568 1.373.378.331 1.025.59 1.94.78l2.58.545c1.56.331 2.721.852 3.479 1.561.772.71 1.159 1.657 1.159 2.84 0 .757-.158 1.444-.474 2.059a4.383 4.383 0 0 1-1.325 1.585c-.568.442-1.254.78-2.059 1.017-.804.237-1.712.356-2.721.356-.694 0-1.388-.056-2.082-.166a10.831 10.831 0 0 1-1.964-.45 8.08 8.08 0 0 1-1.657-.804 1.531 1.531 0 0 1-.71-1.467c.048-.268.15-.497.308-.686.174-.205.386-.332.639-.38.252-.046.528.024.828.214a8.09 8.09 0 0 0 2.201.9c.773.188 1.585.283 2.437.283 1.246 0 2.153-.205 2.721-.615.568-.426.852-.97.852-1.633 0-.552-.205-.986-.615-1.302-.395-.315-1.081-.576-2.059-.78l-2.602-.545c-1.499-.315-2.62-.843-3.36-1.585-.726-.757-1.09-1.752-1.09-2.982 0-.773.158-1.475.474-2.106a4.885 4.885 0 0 1 1.325-1.632 6.176 6.176 0 0 1 2.059-1.042c.804-.253 1.688-.378 2.65-.378Zm34.237 5.111c1.136 0 2.067.174 2.792.52a3.445 3.445 0 0 1 1.658 1.585c.362.695.544 1.594.544 2.699v5.68c0 .488-.119.867-.356 1.135-.236.252-.575.378-1.016.378-.442 0-.79-.126-1.043-.378-.236-.268-.354-.647-.354-1.136v-.502a3.164 3.164 0 0 1-.474.81 3.21 3.21 0 0 1-1.207.923c-.489.22-1.048.33-1.68.33-.835 0-1.585-.157-2.247-.473a4.076 4.076 0 0 1-1.538-1.325 3.329 3.329 0 0 1-.545-1.87c0-.851.221-1.522.663-2.01.441-.506 1.16-.868 2.153-1.089.994-.22 2.327-.332 4-.332h.827v-.497c0-.788-.173-1.356-.52-1.703-.347-.347-.93-.52-1.751-.52-.458 0-.955.054-1.492.165-.52.11-1.072.3-1.656.568-.3.142-.568.181-.804.118a.906.906 0 0 1-.521-.379 1.242 1.242 0 0 1-.19-.662c0-.236.064-.466.19-.686.126-.237.34-.41.64-.52.725-.3 1.42-.513 2.082-.64a10.18 10.18 0 0 1 1.845-.189Zm20.134-3.408c.473 0 .836.126 1.088.379.253.252.379.623.379 1.112v2.153h2.508c.378 0 .671.095.876.284.205.19.307.466.307.829 0 .347-.102.623-.307.828-.205.189-.498.284-.876.284h-2.508v4.875c0 .757.166 1.325.497 1.703.331.379.868.568 1.609.568.268 0 .505-.024.71-.07a4.42 4.42 0 0 1 .544-.096.542.542 0 0 1 .473.19c.126.126.189.394.189.804 0 .316-.054.6-.165.852-.094.237-.276.402-.544.497a5.486 5.486 0 0 1-.805.166 4.755 4.755 0 0 1-.875.095c-1.025 0-1.885-.174-2.579-.52a3.349 3.349 0 0 1-1.515-1.515c-.331-.679-.497-1.515-.497-2.509v-5.04h-1.23c-.379 0-.671-.095-.876-.284-.205-.205-.308-.481-.308-.828 0-.363.103-.64.308-.829.205-.189.497-.284.876-.284h1.23V11.96c0-.49.127-.86.379-1.112.268-.253.639-.38 1.112-.38Zm-32.036 3.408c.883 0 1.61.173 2.178.52.583.347 1.018.876 1.302 1.585.284.694.425 1.578.425 2.65v5.728c0 .49-.134.868-.402 1.136-.252.252-.616.378-1.089.378s-.836-.126-1.089-.378c-.252-.268-.378-.647-.378-1.136V18.75c0-.883-.15-1.53-.45-1.94-.284-.41-.772-.616-1.467-.616-.773 0-1.38.276-1.822.828-.441.537-.662 1.286-.662 2.248v5.088c0 .49-.127.868-.379 1.136-.252.252-.616.378-1.089.378s-.844-.126-1.112-.378c-.252-.268-.378-.647-.378-1.136V18.75c0-.883-.15-1.53-.45-1.94-.284-.41-.765-.616-1.444-.616-.773 0-1.38.276-1.822.828-.441.537-.662 1.286-.662 2.248v5.088c0 1.01-.497 1.514-1.491 1.514-.473 0-.837-.126-1.089-.378-.252-.268-.378-.647-.378-1.136v-8.945c0-.489.126-.86.378-1.112.252-.253.608-.38 1.065-.38.458 0 .813.127 1.065.38.252.252.379.623.379 1.112v.474a3.94 3.94 0 0 1 1.207-1.325c.662-.458 1.451-.687 2.366-.687.93 0 1.696.22 2.296.662.5.368.87.902 1.117 1.599.32-.63.773-1.14 1.367-1.528.726-.489 1.562-.733 2.508-.733Zm26.429 0c.331-.032.592.055.781.26.205.189.324.49.356.9.031.394-.064.717-.285.97-.205.236-.52.378-.946.426l-.521.047c-.963.094-1.688.394-2.177.899-.489.489-.734 1.184-.734 2.083v4.898c0 .49-.126.868-.378 1.136-.253.252-.624.378-1.113.378s-.867-.126-1.136-.378c-.252-.268-.378-.647-.378-1.136v-8.945c0-.489.126-.86.378-1.112.253-.253.608-.38 1.066-.38.457 0 .812.127 1.064.38.253.252.379.623.379 1.112v.752c.245-.59.599-1.063 1.065-1.415.646-.489 1.506-.78 2.579-.875Zm-13.154 6.65c-.978 0-1.759.046-2.342.141-.584.095-1.003.26-1.255.497-.237.22-.355.537-.355.947 0 .52.182.947.544 1.278.363.331.868.497 1.515.497.52 0 .978-.12 1.372-.356.41-.252.734-.591.97-1.017.237-.426.355-.915.355-1.467v-.52h-.805Z" fill="url(#ga)"/><defs><linearGradient id="ga" x1="-30.913" y1="63.503" x2="198.662" y2="12.714" gradientUnits="userSpaceOnUse"><stop stop-color="#6C63FF"/><stop offset="1" stop-color="#413B99"/></linearGradient></defs></symbol><symbol fill="none" viewBox="0 0 16 16" id="svg--mail" xmlns="http://www.w3.org/2000/svg"><path d="M14.667 4c0-.733-.6-1.333-1.334-1.333H2.667c-.734 0-1.334.6-1.334 1.333m13.334 0v8c0 .733-.6 1.333-1.334 1.333H2.667c-.734 0-1.334-.6-1.334-1.333V4m13.334 0L8 8.667 1.333 4" stroke="#717680" stroke-width="1.333" stroke-linecap="round" stroke-linejoin="round"/></symbol><symbol fill="none" viewBox="0 0 32 33" id="svg--telegram" xmlns="http://www.w3.org/2000/svg"><circle cx="16" cy="16.894" r="14" fill="#6C63FF"/><path d="M22.987 11.103c.124-.806-.642-1.441-1.358-1.127L7.365 16.239c-.514.225-.476 1.003.056 1.173l2.942.937c.562.178 1.17.086 1.66-.253l6.632-4.582c.2-.138.418.147.247.323l-4.774 4.922c-.463.477-.371 1.286.186 1.636l5.345 3.351c.6.376 1.37-.001 1.483-.726l1.845-11.917Z" fill="#F9FAFB"/></symbol><symbol fill="none" viewBox="0 0 93 25" id="svg--vctor-right" xmlns="http://www.w3.org/2000/svg"><path d="M92.461 1.649C92.474.88 91.89.383 91.152.336c-4.496-.67-9.164.026-13.338 1.819-3.947 1.562-8.207 3.376-12.527 2.33-.549-1.18-1.133-2.587-2.48-3.03-.837-.351-1.909.3-1.849 1.249.099 1.257 1.266 2.008 1.922 2.973-3.724 5.29-10.382 7.937-16.731 7.76-6.688-.098-12.853-2.972-19.254-4.525-3.505-.871-7.293-1.047-10.725.24-2.694.9-5.002 2.716-6.718 4.964-2.574-.91-5.581-1.816-8.216-.686-.06.18-.176.549-.236.729 2.488.468 5.015.828 7.37 1.819-.605 2.068-1.042 4.423.073 6.409.781 1.45 2.372 2.922 4.144 2.432 1.935-.824 2.604-3.346 1.999-5.23-.519-1.93-2.055-3.3-3.471-4.595 3.055-3.36 7.761-4.925 12.231-4.376 7.499.914 14.329 4.843 21.931 5.204 7.538.45 15.659-2.763 19.614-9.451 5.157 1.133 10.206-.974 15.037-2.51 4.038-1.41 8.345-1.573 12.533-2.212Zm-79.487 18.64c.378 1.065-.021 2.232-.807 3.004-1.54-.056-2.681-1.545-2.844-2.99-.227-1.231.202-2.428.592-3.565 1.257.93 2.673 1.934 3.059 3.552Z" fill="url(#ja)" stroke="#010101" stroke-width=".04" stroke-miterlimit="10.43"/><defs><linearGradient id="ja" x1="110.356" y1="27.752" x2="-17.956" y2="-9.965" gradientUnits="userSpaceOnUse"><stop stop-color="#6C63FF"/><stop offset="1" stop-color="#413B99"/></linearGradient></defs></symbol><symbol fill="none" viewBox="0 0 93 25" id="svg--vector-left" xmlns="http://www.w3.org/2000/svg"><path d="M.539 1.649C.526.88 1.11.383 1.848.336c4.496-.67 9.164.026 13.338 1.819 3.947 1.562 8.207 3.376 12.527 2.33.549-1.18 1.133-2.587 2.48-3.03.837-.351 1.909.3 1.849 1.249-.099 1.257-1.266 2.008-1.922 2.973 3.724 5.29 10.382 7.937 16.731 7.76 6.688-.098 12.853-2.972 19.254-4.525 3.505-.871 7.293-1.047 10.725.24 2.694.9 5.002 2.716 6.718 4.964 2.574-.91 5.581-1.816 8.216-.686.06.18.176.549.236.729-2.488.468-5.015.828-7.37 1.819.605 2.068 1.042 4.423-.073 6.409-.781 1.45-2.372 2.922-4.144 2.432-1.935-.824-2.604-3.346-1.999-5.23.519-1.93 2.055-3.3 3.471-4.595-3.055-3.36-7.761-4.925-12.231-4.376-7.499.914-14.329 4.843-21.931 5.204-7.538.45-15.659-2.763-19.614-9.451-5.157 1.133-10.206-.974-15.037-2.51C9.034 2.45 4.727 2.288.539 1.649Zm79.487 18.64c-.378 1.065.021 2.232.807 3.004 1.54-.056 2.681-1.545 2.844-2.99.227-1.231-.202-2.428-.592-3.565-1.257.93-2.673 1.934-3.059 3.552Z" fill="url(#ka)" stroke="#010101" stroke-width=".04" stroke-miterlimit="10.43"/><defs><linearGradient id="ka" x1="-17.356" y1="27.752" x2="110.956" y2="-9.965" gradientUnits="userSpaceOnUse"><stop stop-color="#6C63FF"/><stop offset="1" stop-color="#413B99"/></linearGradient></defs></symbol></svg>